<?xml version="1.0" encoding="UTF-8" standalone="no"?>
<!-- Created with Inkscape (http://www.inkscape.org/) -->

<svg
   version="1.1"
   id="svg629"
   width="123.94786"
   height="114.20947"
   viewBox="0 0 123.94786 114.20947"
   sodipodi:docname="CARDIA-PPG_LOGO.svg"
   inkscape:version="1.2.1 (9c6d41e410, 2022-07-14, custom)"
   xmlns:inkscape="http://www.inkscape.org/namespaces/inkscape"
   xmlns:sodipodi="http://sodipodi.sourceforge.net/DTD/sodipodi-0.dtd"
   xmlns="http://www.w3.org/2000/svg"
   xmlns:svg="http://www.w3.org/2000/svg">
  <defs
     id="defs633">
    <clipPath
       clipPathUnits="userSpaceOnUse"
       id="clipPath28">
      <path
         d="M 0,0 H 612 V 803.25 H 0 Z"
         id="path26" />
    </clipPath>
  </defs>
  <sodipodi:namedview
     id="namedview631"
     pagecolor="#ffffff"
     bordercolor="#000000"
     borderopacity="0.25"
     inkscape:showpageshadow="2"
     inkscape:pageopacity="0.0"
     inkscape:pagecheckerboard="0"
     inkscape:deskcolor="#d1d1d1"
     showgrid="false"
     inkscape:zoom="2"
     inkscape:cx="139.75"
     inkscape:cy="114"
     inkscape:window-width="1366"
     inkscape:window-height="731"
     inkscape:window-x="0"
     inkscape:window-y="0"
     inkscape:window-maximized="1"
     inkscape:current-layer="layer1" />
  <g
     inkscape:groupmode="layer"
     inkscape:label="Image"
     id="g635"
     transform="translate(-4.8215988,-3.3561743)">
    <g
       id="g1579"
       style="stroke:none;stroke-opacity:1"
       inkscape:groupmode="layer">
      <g
         id="g1567"
         transform="translate(2.6940992,-3.4208831)"
         style="stroke:none;stroke-opacity:1">
        <path
           style="display:inline;fill:#fdba51;stroke:#000000;stroke-width:4;stroke-dasharray:none;stroke-opacity:1"
           d="M 61.547697,117.37672 C 40.402125,101.16685 22.955554,83.787648 13.610879,69.625 8.6314715,62.078285 6.101422,56.165303 4.6824257,48.758295 4.2128745,46.307287 4.12968,45.012915 4.1275297,40.125 4.1248775,34.09629 4.225163,33.252045 5.419345,29.25 8.24953,19.76524 16.076723,12.354269 25.89429,9.8638383 29.640535,8.9135255 33.383098,8.6054025 36.945463,8.9540018 c 9.581855,0.9376432 17.234112,5.3123832 22.49066,12.8577452 1.16199,1.667948 3.241672,5.627703 3.939432,7.500753 0.243305,0.653125 0.511465,1.18699 0.59591,1.18637 0.08444,-5e-4 0.655335,-0.984997 1.268648,-2.1875 1.93472,-3.793358 4.418287,-7.231989 7.377972,-10.215197 5.147423,-5.188332 10.46028,-7.956227 17.189575,-8.9554313 3.104123,-0.4609182 4.620695,-0.484558 7.866568,-0.1226217 13.392272,1.493327 22.863002,9.741752 25.603722,22.299272 1.34806,6.176565 0.92769,14.955623 -1.06217,22.182608 -4.09845,14.885243 -20.27307,34.681983 -45.678092,55.90717 -6.038343,5.04486 -11.97771,9.59667 -12.496965,9.57741 -0.228648,-0.008 -1.35051,-0.73202 -2.493026,-1.60786 z"
           id="path1573" />
        <path
           style="display:inline;fill:#fd9600;stroke:none;stroke-width:0.25;stroke-opacity:1"
           d="M 60.967742,116.34154 C 46.90008,105.66013 32.409292,92.25752 22.756769,81 19.647657,77.373915 15.218567,71.416157 12.973328,67.839883 6.9303725,58.214503 4.4109352,49.97893 4.4182742,39.875 4.424995,30.622317 7.1318592,23.408463 12.678196,17.862126 16.680469,13.859853 21.050428,11.455458 27,9.9821238 c 2.065957,-0.5116076 2.976817,-0.5877243 7,-0.5849613 5.111693,0.00351 7.1212,0.3315878 11.271525,1.8402165 7.739385,2.81324 14.02111,9.126475 17.4492,17.536726 0.527035,1.292992 1.10121,2.350895 1.275942,2.350895 0.174735,0 0.900361,-1.13624 1.6125,-2.52498 C 72.881168,14.418935 85.086843,7.4801985 99,9.617848 c 11.76346,1.807366 20.23225,8.933725 23.33198,19.633527 0.98701,3.407015 1.27797,5.804183 1.27429,10.498625 -0.006,8.309787 -1.60324,15.000255 -5.33929,22.372152 C 111.34601,75.77848 96.85641,91.97029 76,109.35459 70.803917,113.68564 64.557097,118.5 64.133465,118.5 c -0.17764,0 -1.602215,-0.97131 -3.165723,-2.15846 z M 19.110824,49.444372 C 19.324871,49.13878 19.5,48.644845 19.5,48.346742 c 0,-1.298767 1.369545,-5.67832 2.509534,-8.02503 1.579158,-3.250752 3.248581,-5.069105 7.735571,-8.42566 3.072792,-2.298645 3.442215,-2.660822 4.1875,-4.105395 0.653853,-1.267352 0.817395,-1.881695 0.817395,-3.07053 0,-2.581216 -0.911183,-3.874088 -3.625,-5.143493 -1.291645,-0.604174 -1.79517,-0.698933 -3.625,-0.682191 -2.38432,0.02182 -3.797503,0.480888 -6.18832,2.010275 -6.898457,4.412889 -9.582478,13.065997 -6.911613,22.282592 0.672118,2.319343 2.119801,5.644028 2.77086,6.36344 0.556062,0.61444 1.470124,0.564318 1.939897,-0.106378 z M 81.73459,33.830227 c 4.385055,-1.258257 9.207328,-4.434422 10.47563,-6.899722 2.391677,-4.648897 -1.051953,-9.606849 -6.022153,-8.670372 -4.10835,0.77409 -7.344165,4.1377 -10.452177,10.864979 -2.326605,5.035928 -0.40551,6.54275 5.9987,4.705115 z"
           id="path1571" />
        <path
           style="display:inline;fill:#f67d00;stroke:none;stroke-width:0.25;stroke-opacity:1"
           d="m 64.5,117.84551 c 0,-0.28047 1.4894,-1.88503 9.370927,-10.09551 C 82.563727,98.694395 86.233552,94.722972 90.64207,89.60055 103.51071,74.648003 111.15147,61.893087 113.46599,51.5 114.8132,45.450547 115.28424,39.38485 114.77176,34.68537 113.38616,21.979301 105.98464,13.665338 94.268445,11.654461 91.440007,11.16901 87.320405,11.15126 84.75,11.613452 c -1.03125,0.185431 -1.919048,0.294841 -1.972885,0.243131 -0.176993,-0.170003 2.25181,-1.107276 4.174023,-1.610751 4.269427,-1.1182693 9.963567,-1.1198728 14.687142,-0.0041 12.02392,2.84012 20.0533,11.900531 21.62715,24.404224 0.73152,5.811717 -0.19941,14.693379 -2.15961,20.604079 -1.29259,3.897588 -4.21575,9.590446 -7.31708,14.25 -5.31213,7.981135 -9.76493,13.236948 -19.282692,22.76006 -8.70797,8.712865 -16.26811,15.393305 -25.96831,22.946615 C 65.22633,117.7852 64.5,118.25988 64.5,117.84551 Z M 59.453867,37.5625 C 59.248373,37.321875 58.819473,36.45 58.500755,35.625 57.533902,33.1223 54.603087,27.480778 53.10492,25.238557 48.433832,18.247627 43.2424,14.051649 36.82208,12.077948 34.824062,11.463727 34.251263,11.401306 30.5,11.388988 c -4.38438,-0.0144 -6.124143,0.252778 -9.81056,1.50661 -0.975618,0.331829 -1.813114,0.564061 -1.861104,0.516072 -0.162373,-0.162373 2.785472,-1.603856 4.613246,-2.255857 6.567418,-2.3427207 14.837,-2.3409805 21.366835,0.0045 8.129045,2.919903 14.428615,9.223901 17.934528,17.947139 l 1.062147,2.642782 -1.083327,2.537085 c -1.552233,3.635228 -2.310993,4.39568 -3.267898,3.275185 z"
           id="path1569" />
      </g>
      <g
         inkscape:groupmode="layer"
         id="layer1"
         inkscape:label="Impulso">
        <path
           id="path8598"
           style="display:inline;fill:#000000;fill-opacity:1;fill-rule:nonzero;stroke:#ffffff;stroke-width:3;stroke-dasharray:none;stroke-opacity:1;stroke-linejoin:round"
           d="m 49.564044,21.99278 c -0.28723,-0.04235 -0.498422,0.04563 -0.600632,0.09418 -0.06213,0.02954 -0.148076,0.08643 -0.24067,0.159049 -0.01396,0.01265 -0.09012,0.0502 -0.09627,0.05442 l -0.150681,0.110918 -0.177886,0.159054 -0.148588,0.169515 c -0.0088,0.01042 -0.04306,0.006 -0.108826,0.115102 l -0.08162,0.08162 c -0.02277,0.02498 -0.08506,0.08541 -0.163239,0.211373 -0.311534,0.367981 -0.134474,0.258247 -0.14231,0.278342 -0.01228,0.03145 -0.01188,0.05023 -0.02093,0.07743 l -0.01047,0.01465 -0.07743,0.117195 -0.167424,0.301366 c -0.129303,0.264463 -0.224234,0.538917 -0.307638,0.847575 l -0.08162,0.292992 -0.06278,0.156959 -0.06906,0.152776 -0.09627,0.284618 -0.100454,0.359958 -0.08162,0.410187 -0.07953,0.504365 -0.02302,0.142309 -0.08162,0.439483 -0.0858,0.768055 -0.02721,0.334846 -0.01047,0.146495 -0.02302,0.207187 -0.0293,0.251134 -0.04814,0.650856 -0.0084,0.219744 -0.0084,0.102548 -0.02511,0.18207 -0.03139,0.188353 -0.0293,0.223926 -0.06488,0.623653 -0.02721,0.209276 -0.01674,0.07744 -0.02721,0.113011 -0.01046,0.05232 c -0.06477,0.22664 -0.04152,0.218174 -0.04604,0.25532 l -0.02302,0.21765 c 3.48e-4,-0.01144 -4e-6,-0.02019 -0.0021,-0.0042 l -0.01883,0.177886 -0.06906,0.577608 -0.02511,0.167423 -0.01465,0.07744 c 0.0016,-0.0088 0.0051,-0.02387 -0.0042,0.01256 l -0.03558,0.140215 c -0.06864,0.285722 -0.09575,0.533397 -0.121383,0.751312 l -0.03767,0.339031 -0.02093,0.173704 -0.01255,0.07324 c -0.0034,0.01733 -0.0056,0.03503 -0.0084,0.05232 l -0.0084,0.03557 -0.02721,0.121382 -0.01883,0.09209 -0.02093,0.146492 -0.02511,0.251138 -0.01674,0.464596 -0.01465,0.190443 -0.01255,0.0879 -0.01256,0.09627 -0.01047,0.05442 -0.02511,0.127658 -0.03349,0.182073 c -0.06188,0.361176 -0.06539,0.671268 -0.07743,0.945942 l -0.01883,0.328568 -0.03348,0.529475 -0.0042,0.23439 -0.02302,0.617373 -0.01883,0.284622 -0.0063,0.07325 -0.01256,0.110919 -0.01465,0.148585 -0.02721,0.242764 -0.06069,0.632023 -0.02721,0.196723 -0.06697,0.359959 -0.0858,0.598535 -0.02512,0.297179 -0.02511,0.604816 -0.01674,0.23439 -0.01883,0.320199 -0.02093,0.370422 -0.01674,0.305549 -0.04395,0.588072 -0.04395,0.782702 -0.02511,0.303455 -0.05023,0.514828 -0.02302,0.644576 -0.01674,0.280435 -0.04604,0.387166 -0.03348,0.336939 -0.03976,0.519011 -0.03768,0.380889 -0.03976,0.313919 -0.04395,0.408092 -0.04395,0.64458 -0.02302,0.276248 -0.03558,0.236483 -0.03348,0.232301 -0.05859,0.640393 -0.02302,0.290898 -0.03349,0.288805 -0.0272,0.274154 -0.02721,0.429024 -0.03558,0.531568 -0.01465,0.238577 -0.01465,0.190443 c -0.0023,0.01893 -0.0045,0.0373 -0.0063,0.05651 l -0.03139,0.433206 -0.04395,0.598536 -0.01883,0.190448 -0.03348,0.429019 -0.01883,0.339032 -0.03139,0.470877 -0.02093,0.282528 -0.01883,0.228114 -0.02302,0.265784 -0.02721,0.441577 -0.0314,0.424837 -0.02302,0.267877 -0.03976,0.433206 -0.0586,0.644581 -0.02721,0.376703 -0.05023,0.48134 -0.07324,0.627837 -0.03139,0.349496 -0.02093,0.228112 -0.04604,0.311825 -0.04814,0.514829 -0.04814,0.592259 -0.02511,0.288805 -0.02302,0.234389 -0.02929,0.399724 -0.03349,0.41228 -0.02093,0.276247 -0.01674,0.169516 -0.02093,0.286711 -0.04185,0.437393 -0.05232,0.663414 -0.01674,0.255321 -0.02093,0.188353 -0.03139,0.351589 -0.03976,0.512731 -0.02511,0.311824 -0.05232,0.454138 -0.07116,0.893621 -0.01674,0.284617 -0.04604,0.424837 c -0.03353,0.31018 -0.04386,0.626368 -0.05441,0.918734 l -0.01046,0.292992 -0.04185,0.502267 -0.02511,0.539943 -0.01674,0.301361 -0.0084,0.119288 -0.0084,0.144402 -0.0042,0.117196 -0.0063,0.142309 v 0.113011 l -0.01674,0.521105 -0.02302,0.422744 -0.02093,0.24067 -0.0084,0.0565 -0.09417,0.751312 -0.02721,0.309731 c -0.0028,0.01961 -0.0063,0.04071 -0.0084,0.06069 l -0.01465,0.150683 -0.02929,0.152772 -0.03557,0.16324 -0.05023,0.246946 -0.01674,0.113013 -0.01466,0.121382 -0.02302,0.161146 -0.03767,0.303455 -0.02512,0.159048 -0.02511,0.163239 -0.0063,0.06488 -0.02721,0.133935 -0.03139,0.146495 -0.03557,0.215557 -0.02093,0.119293 -0.02093,0.121381 -0.0293,0.163236 -0.02093,0.136032 c 0.0021,-0.01393 0.0037,-0.03647 -0.0042,0 l -0.03557,0.200906 -0.01465,0.07325 -0.03557,0.167423 -0.0293,0.104641 -0.03139,0.08371 -0.07953,0.269967 -0.03139,0.129756 -0.01883,0.09417 -0.03558,0.175793 -0.03348,0.228113 -0.01255,0.07534 -0.02093,0.163238 -0.01883,0.123472 -0.03139,0.17789 -0.04185,0.133939 -0.02511,0.07325 -0.03767,0.09836 -0.03976,0.100455 c -0.02831,0.07177 0.01853,-0.04715 -0.01883,0.03767 l -0.06906,0.179979 -0.07116,0.196724 c -0.349531,-0.03663 -0.707097,0.128779 -0.933382,0.47506 l -0.129755,0.238581 c -0.06558,0.153869 -0.24936,0.548857 0.01047,1.115453 0.175933,0.383712 0.482933,0.548489 0.648763,0.602727 0.190837,0.06244 0.264678,0.04805 0.31392,0.04814 0.03486,0.0044 0.172858,0.02067 0.387166,-0.02721 0.13989,-0.03127 0.250304,-0.07551 0.364144,-0.129752 0.03284,-0.0095 0.112097,-0.03442 0.238579,-0.102548 l 0.05023,-0.03348 c 0.172485,-0.02854 0.195323,-0.09691 0.213466,-0.140219 0.06115,-0.04371 0.197161,-0.115153 0.320195,-0.309732 l 0.148589,-0.196723 0.150681,-0.265784 0.12138,-0.269967 0.0314,-0.08999 0.0586,-0.163236 c 0.02215,-0.05944 -0.0022,-0.0038 0.01465,-0.04186 l 0.0586,-0.127659 0.03557,-0.09418 0.07953,-0.21137 0.02511,-0.07952 0.07743,-0.236487 c 0.06355,-0.213352 0.08762,-0.387831 0.110919,-0.539939 l 0.02511,-0.156959 0.01883,-0.148589 0.01256,-0.0879 0.01883,-0.121382 0.02302,-0.117194 0.01674,-0.08371 0.02302,-0.07952 0.05232,-0.146496 0.05441,-0.188353 0.05232,-0.215557 c 0.01543,-0.07746 0.0017,-0.02356 0.0042,-0.03348 l 0.04395,-0.20928 0.01047,-0.05441 0.01255,-0.08371 0.0293,-0.140219 0.01465,-0.08999 0.0293,-0.167423 0.02093,-0.119292 0.0293,-0.171606 0.01674,-0.104641 0.02721,-0.123472 0.03139,-0.159053 0.0293,-0.188353 0.0063,-0.04814 0.01674,-0.117194 0.02721,-0.177887 0.04604,-0.336938 0.02721,-0.207187 0.01047,-0.09627 0.02721,-0.121382 0.03767,-0.175797 0.06697,-0.372515 0.01465,-0.146496 c 0.0047,-0.02886 0.0098,-0.05824 0.01256,-0.0879 l 0.03139,-0.364142 0.07534,-0.606909 0.02512,-0.165333 0.02929,-0.341122 0.0293,-0.539942 0.01674,-0.634113 0.0042,-0.106732 0.0021,-0.07953 0.0084,-0.117194 0.0084,-0.142309 0.01674,-0.318105 0.02721,-0.527382 0.04185,-0.512734 0.01255,-0.347402 0.03976,-0.719922 0.0565,-0.535751 0.01674,-0.307642 0.05441,-0.713642 0.06488,-0.562958 0.0272,-0.336939 0.03558,-0.477157 0.02721,-0.288804 0.02929,-0.286711 0.01674,-0.259508 0.04814,-0.62365 0.04395,-0.445763 0.02093,-0.276248 0.01674,-0.198817 0.02093,-0.265784 0.03557,-0.42902 0.02721,-0.366239 0.02093,-0.2323 0.02511,-0.292992 0.05232,-0.627836 0.0293,-0.347402 0.05442,-0.374609 0.02721,-0.286711 0.0293,-0.332755 0.06278,-0.525289 0.06697,-0.661319 0.02512,-0.341126 0.0565,-0.623654 0.03976,-0.429019 0.02511,-0.295085 0.03557,-0.47506 0.02511,-0.41228 0.01883,-0.228114 0.02302,-0.25532 0.02093,-0.292992 0.03557,-0.525292 0.01674,-0.311825 0.02511,-0.326475 0.02302,-0.236483 0.04814,-0.632023 0.02511,-0.372516 c 0.0017,-0.01529 0.0028,-0.03055 0.0042,-0.04604 l 0.02302,-0.29299 0.01256,-0.207187 0.03767,-0.571333 0.02302,-0.366235 0.01674,-0.17161 0.04185,-0.362052 0.02721,-0.320198 0.04185,-0.510639 0.02511,-0.165332 0.05023,-0.355772 0.03558,-0.37461 0.03976,-0.613186 0.03348,-0.299271 0.04395,-0.347402 0.04604,-0.468784 0.03767,-0.502271 0.02302,-0.234391 0.0565,-0.50436 0.02511,-0.38926 0.01883,-0.585983 0.04186,-0.414369 0.03348,-0.40391 0.03976,-0.730385 0.05023,-0.671783 0.01674,-0.295086 0.02093,-0.374608 0.01674,-0.290899 0.01674,-0.259504 0.02511,-0.579702 0.01674,-0.196723 0.05023,-0.362053 0.08371,-0.445763 0.03976,-0.295084 0.06697,-0.686435 0.03139,-0.272061 0.0042,-0.06488 0.01883,-0.159053 0.01047,-0.129752 0.02511,-0.368328 0.02511,-0.707365 0.0042,-0.192537 0.02721,-0.439486 0.02302,-0.391349 0.03977,-0.602723 0.03348,-0.167427 c 0.0067,-0.03759 0.0039,-0.03095 0,-0.01674 l 0.02511,-0.119288 0.01674,-0.09627 0.02093,-0.140219 0.02302,-0.17998 0.02721,-0.343215 0.01465,-0.437393 0.01047,-0.0879 0.0084,-0.04186 0.0084,-0.03349 0.03976,-0.175792 c 0.0085,-0.04347 0.01459,-0.08648 0.01883,-0.129752 l 0.01465,-0.0879 0.0293,-0.244858 0.03767,-0.328568 0.06488,-0.433206 0.02511,-0.102546 0.04185,-0.179979 0.02302,-0.125569 0.04185,-0.278341 0.07534,-0.625742 0.01256,-0.131846 0.01674,-0.148589 0.0063,-0.0565 0.0084,-0.03349 c 0.0095,-0.04847 -0.0035,0.01052 0.0042,-0.02302 l 0.02721,-0.113008 0.03976,-0.192536 0.0586,-0.422743 0.06069,-0.594353 0.01256,-0.106732 0.0272,-0.159052 0.05023,-0.353683 0.01883,-0.263691 0.0084,-0.207187 0.03558,-0.493896 0.02929,-0.240671 0.0293,-0.278341 0.01256,-0.173703 0.02511,-0.316012 0.06278,-0.569239 0.06488,-0.345308 0.04186,-0.244858 0.06697,-0.4353 0.05023,-0.259503 0.06069,-0.213467 c 0.01069,-0.0359 0.0055,-0.02751 0.0042,-0.02511 l 0.0586,-0.125565 0.148588,-0.387166 0.119291,-0.414374 0.131845,-0.385072 0.03558,-0.06697 0.02302,-0.03558 0.0063,0.0084 c 0.0013,0.0031 0.0021,0.0061 0.01255,0.02929 l 0.106734,0.313918 0.09417,0.278341 0.108826,0.244857 0.09836,0.173704 0.01465,0.03139 0.01255,0.04185 0.06697,0.261597 0.04604,0.167423 0.05232,0.190443 0.02093,0.06697 c 0.02131,0.06825 0.02242,0.103714 0.104636,0.274154 l 0.06069,0.127663 0.03976,0.211369 0.08162,0.349496 0.03557,0.133939 0.07952,0.24067 v 0.0021 c 0.03099,0.0909 0.03265,0.149814 0.123476,0.286711 l 0.07743,0.179979 0.129752,0.326476 0.108825,0.286715 0.113013,0.242764 0.125565,0.207182 0.0565,0.07744 0.06697,0.18835 0.175797,0.472971 0.148588,0.309735 0.163236,0.24904 0.129755,0.290898 0.257411,0.46669 0.163239,0.226025 c 0.01786,0.02394 -0.01124,-0.01304 0.02929,0.04604 l 0.108826,0.146495 0.03139,0.04395 c 0.0099,0.01381 -3.76e-4,-0.0037 0.0042,0.0042 l 0.119291,0.242763 0.09208,0.230208 0.0879,0.184162 0.0858,0.150682 0.06906,0.106732 c 0.04883,0.07229 0.088,0.125713 0.154863,0.196724 l 0.04395,0.0586 0.117194,0.278341 0.184165,0.408093 0.06488,0.125569 0.0879,0.156959 0.09836,0.150679 0.02721,0.03976 0.04395,0.06069 0.04185,0.06697 0.200905,0.431114 0.173704,0.318105 c 0.144834,0.241207 0.238233,0.339212 0.240671,0.343215 l 0.06278,0.156959 0.08162,0.223931 0.0858,0.228113 0.146496,0.318102 0.03767,0.06906 0.09627,0.150679 -0.0021,0.0021 0.165332,0.391352 0.142309,0.328565 0.07116,0.156959 0.07325,0.159053 0.106733,0.309735 0.07952,0.274154 0.100455,0.290898 0.163235,0.341125 0.03349,0.06906 0.175793,0.487621 0.08371,0.207183 0.100453,0.234394 0.08162,0.165329 0.123474,0.362052 0.09208,0.267878 0.06906,0.203 0.106729,0.24695 0.04604,0.0879 0.02093,0.05023 0.03557,0.07534 c 0.03277,0.06901 0.0018,0.03746 0.06488,0.257414 l 0.182071,0.527382 0.173701,0.364146 0.08371,0.274157 0.06697,0.274155 0.05023,0.182073 0.06278,0.179979 0.03139,0.08162 0.03768,0.09209 0.06069,0.21974 0.03976,0.18626 0.05023,0.238576 0.04814,0.169517 0.03349,0.110918 0.02929,0.07952 0.09627,0.20928 c 0.02208,0.04143 -0.01398,-0.0246 0.01047,0.02511 l 0.01883,0.03558 0.14231,0.389259 0.133941,0.305549 0.05232,0.117194 0.08999,0.182073 0.01465,0.02929 0.03558,0.06906 0.07324,0.129752 0.01465,0.03976 0.05442,0.163235 0.02093,0.06069 0.04186,0.110919 0.06906,0.194629 0.140216,0.324381 0.07743,0.138126 0.0565,0.09627 0.04185,0.06488 c 0.09263,0.21159 0.107134,0.162847 0.140217,0.20928 0.01219,0.01713 0.02297,0.03406 0.03558,0.05023 l 0.02721,0.03976 0.03348,0.04814 0.121384,0.18835 0.04604,0.06906 0.05859,0.0858 0.06906,0.102548 c 0.0303,0.04231 -0.0192,-0.02807 0.01256,0.02093 l 0.01465,0.02721 0.156957,0.22602 0.146496,0.163236 c 0.09298,0.09114 0.189684,0.154665 0.238577,0.184165 l 0.06278,0.04395 0.200908,0.115102 0.221835,0.08371 c 0.204697,0.06045 0.356409,0.06715 0.491806,0.07116 h 0.161146 c 0.01766,-2e-4 0.02047,0.01846 0.215555,-0.0063 l 0.192537,-0.04395 c 0.06809,-0.0224 0.181752,-0.05741 0.307642,-0.154866 l 0.102547,-0.03348 0.08371,-0.03558 0.0586,-0.0293 c 0.108547,-0.05044 0.204669,-0.117887 0.288804,-0.200906 l 0.03976,-0.03557 0.08371,-0.0879 c -0.01073,0.01201 -0.01602,0.0209 -0.0042,0.0084 0.02375,-0.0251 0.03702,-0.04049 0.04395,-0.04814 0.02003,-0.02177 0.03787,-0.04323 0.05651,-0.06697 l 0.02302,-0.02511 0.07324,-0.100455 0.05442,-0.07534 c 0.01097,-0.01637 -0.0081,0.01323 0.0042,-0.0042 l 0.0565,-0.08371 0.03348,-0.05442 0.0293,-0.04814 0.06278,-0.08789 c 0.02995,-0.04535 -0.0012,-0.0041 0.0063,-0.01465 l 0.03557,-0.04814 c 0.14271,-0.09226 0.141289,-0.138078 0.15696,-0.173703 0.01505,-0.02094 0.03384,-0.0465 0.06069,-0.08789 l 0.04395,-0.06278 0.06488,-0.110918 0.0314,-0.0565 0.0565,-0.100454 0.07744,-0.14022 0.08162,-0.117195 0.06069,-0.07116 0.03139,-0.04185 0.0565,-0.06906 0.01674,-0.02093 0.06697,-0.09417 0.04185,-0.07116 0.06906,-0.121382 0.07325,-0.156959 c -0.0022,0.0051 -2.82e-4,0.0042 0.01883,-0.03767 l 0.02511,-0.05859 0.02093,-0.04395 0.03557,-0.07116 c 0.007,-0.01333 -0.0042,-0.0037 -0.0063,-0.0021 l 0.05859,-0.0565 0.04814,-0.05232 0.09208,-0.106732 c 0.0141,-0.01765 0.0045,-0.006 0.0063,-0.0084 l 0.144402,-0.205093 0.01466,-0.02721 0.08371,-0.150679 0.07953,-0.156959 0.07952,-0.167427 c 0.03294,-0.06905 -0.0055,-0.01304 0.02093,-0.05022 l 0.159052,-0.188353 c 0.135642,-0.170681 0.236796,-0.339008 0.322289,-0.512731 0.0076,-0.01549 0.008,-0.01825 0.01883,-0.03767 l 0.02511,-0.0314 0.02302,-0.02929 0.03348,-0.04395 c 0.01668,-0.02205 0.0087,-0.01067 0.0084,-0.01047 l 0.05441,-0.06697 0.123473,-0.159053 0.06488,-0.09208 0.02511,-0.03557 0.02929,-0.04186 0.03767,-0.04604 0.07116,-0.07953 0.07116,-0.08162 c 0.02326,-0.01569 0.04408,-0.03044 0.08162,-0.0565 l 0.03768,-0.01883 0.07534,-0.03767 0.133938,-0.06906 0.106733,-0.06069 c 0.03688,0.02531 0.0667,0.05186 0.119291,0.07744 l 0.08371,0.06488 h 0.0021 l 0.148588,0.100455 0.02093,0.0293 0.03768,0.06069 0.02929,0.05231 0.06069,0.104643 0.03767,0.07534 0.03139,0.05651 0.05023,0.08371 0.07534,0.142308 0.08999,0.144403 0.09208,0.125569 0.02302,0.03139 0.173703,0.211374 0.136031,0.161142 0.03139,0.06488 c 0.06063,0.123127 0.12915,0.280579 0.253228,0.477154 l 0.144403,0.203004 0.02721,0.03976 0.05232,0.07534 0.02093,0.03348 0.05023,0.07116 0.06906,0.104643 0.07744,0.133938 0.0565,0.113008 0.188351,0.336943 0.119286,0.213463 0.104641,0.165329 0.131845,0.173703 0.06069,0.07743 0.152774,0.336938 0.100455,0.213467 0.175792,0.282525 0.110919,0.121382 c 0.04346,0.05856 0.09207,0.113563 0.146495,0.163239 0.05196,0.04739 0.102169,0.08582 0.150678,0.119289 l 0.0314,0.06278 0.14231,0.27206 0.09208,0.16324 0.161146,0.236484 0.09208,0.133938 0.117194,0.16324 0.213466,0.236484 0.117194,0.08999 c 0.02072,0.05232 0.08176,0.233113 0.238578,0.508548 0.123348,0.216673 0.254503,0.392718 0.374612,0.548308 l 0.133938,0.177886 0.07534,0.100456 0.09418,0.159052 0.0879,0.150682 0.100454,0.169512 0.219745,0.286715 0.06278,0.06278 c 0.08145,0.175565 0.117706,0.20559 0.129756,0.230208 l 0.110915,0.288803 0.150682,0.316008 0.161145,0.232301 0.04395,0.05023 0.06069,0.152772 0.169514,0.326475 0.148588,0.244858 0.07952,0.159052 0.161146,0.272064 0.136031,0.169512 0.05859,0.06069 0.123473,0.246952 0.286712,0.546218 0.159053,0.313919 0.165332,0.359958 0.115102,0.286711 0.110919,0.251138 c 0.141734,0.284958 0.256317,0.403378 0.269968,0.424833 l 0.0293,0.07534 0.0565,0.198817 0.07535,0.230206 c 0.09695,0.278197 0.214566,0.465382 0.272061,0.565053 l 0.06697,0.113011 0.136032,0.401813 0.0858,0.2323 c 0.09796,0.23945 0.209781,0.391637 0.2616,0.46669 l 0.12138,0.169517 0.0586,0.136032 0.07952,0.215557 0.15068,0.341125 0.211374,0.345313 0.09417,0.136028 0.154868,0.301361 c 0.03281,0.0612 0.06863,0.117599 0.108822,0.169516 l 0.110918,0.184166 0.148589,0.203 0.261597,0.292992 0.07116,0.08371 0.06278,0.104638 0.232299,0.309736 c 0.159878,0.186492 0.284748,0.281619 0.343218,0.336938 l 0.0879,0.0879 0.129753,0.152772 c 0.206264,0.22532 0.3618,0.317152 0.399723,0.349496 l 0.290898,0.297178 0.311824,0.288804 c 0.103846,0.09423 0.228329,0.228899 0.429022,0.380886 0.208214,0.157631 0.363955,0.218479 0.441578,0.259508 l 0.326475,0.194629 0.265786,0.146492 0.159049,0.144402 0.318107,0.269972 c 0.185857,0.134495 0.337823,0.20201 0.433207,0.24904 l 0.33694,0.169516 0.138123,0.07953 0.389259,0.205093 0.119287,0.07116 0.200908,0.238576 c 0.111786,0.127811 0.240556,0.256166 0.387167,0.37461 l 0.27834,0.20091 0.0565,0.04604 0.07952,0.131845 c 0.131044,0.209829 0.264335,0.384225 0.382981,0.531569 l 0.251135,0.286711 c 0.100503,0.101352 0.183994,0.168575 0.230206,0.203 l 0.205094,0.332755 0.117198,0.196723 0.110916,0.15696 0.154867,0.184162 0.129752,0.119293 0.198815,0.150678 c 0.02239,0.01465 -0.01571,-0.0094 0.01883,0.01465 l 0.06906,0.04604 0.108826,0.07534 0.165331,0.154866 0.156957,0.127658 0.148588,0.104642 c 0.01957,0.01349 -0.01224,-0.0093 0.0084,0.0063 l 0.203001,0.146495 0.378795,0.267878 0.324381,0.21137 0.244857,0.121381 0.144403,0.05023 c 0.03214,0.01021 -0.02417,-0.006 0.01883,0.01046 l 0.03348,0.01255 0.04604,0.01883 0.182072,0.06697 c 0.232278,0.07457 0.401967,0.0975 0.495992,0.123475 l 0.253229,0.102549 0.238577,0.09836 0.209277,0.07116 0.05441,0.06697 0.03976,0.04814 c 0.02504,0.03106 -0.02088,-0.03556 0.01256,0.01255 l 0.163239,0.203001 0.131844,0.146495 0.04604,0.04814 0.02929,0.03348 c 0.07191,0.08318 0.06454,0.07174 0.07116,0.07534 l 0.117194,0.123475 0.121384,0.159053 0.269968,0.433206 0.249043,0.313918 0.232299,0.223927 0.06697,0.06488 0.14231,0.318105 0.159053,0.318102 0.175793,0.25532 0.0879,0.251134 0.192536,0.433211 0.138123,0.259503 0.0879,0.186261 0.09418,0.309731 0.08163,0.295084 0.0565,0.18835 0.09209,0.26369 0.05231,0.159053 0.07325,0.343219 0.07743,0.324382 0.119286,0.366235 0.119293,0.253231 c 0.02319,0.05315 -0.0078,-0.02107 0.01047,0.07116 l 0.02933,0.198812 0.05018,0.320198 0.08791,0.35996 0.09836,0.276247 0.08582,0.278341 0.06281,0.234394 0.06696,0.255317 c 0.07388,0.25394 0.150387,0.393354 0.161149,0.420654 l 0.03348,0.108824 0.07743,0.257411 0.08999,0.282528 c 0.0616,0.178886 0.135186,0.332243 0.196723,0.445763 l 0.09418,0.15696 0.05234,0.09627 0.104638,0.228113 0.05649,0.146495 0.09208,0.228114 0.133932,0.246951 0.06696,0.108825 0.07535,0.115101 0.104638,0.129757 0.136033,0.129751 0.104639,0.09627 c 0.158207,0.121645 0.23138,0.157295 0.272059,0.167422 0.04481,0.03634 0.09355,0.06761 0.144399,0.09627 0.09971,0.0562 0.158969,0.261049 0.738758,0.115106 0.236528,-0.05952 0.5994,-0.315047 0.745037,-0.707365 0.183175,-0.493509 0.05303,-0.810029 -0.01047,-0.973145 -0.07466,-0.191816 -0.138664,-0.27309 -0.19463,-0.343219 -0.177845,-0.222918 -0.294457,-0.277212 -0.426926,-0.343219 l -0.06904,-0.04604 -0.07951,-0.203 -0.196723,-0.422743 -0.144402,-0.259508 c -0.03218,-0.05208 -0.0087,-0.0093 -0.02301,-0.03557 l -0.02509,-0.0586 -0.06065,-0.192536 -0.08582,-0.280435 -0.09627,-0.284617 -0.08158,-0.18835 -0.05026,-0.19463 -0.07535,-0.276251 -0.148587,-0.479248 -0.0481,-0.125565 -0.01462,-0.0586 -0.03348,-0.215557 -0.05649,-0.355772 c -0.03296,-0.163595 -0.07388,-0.361644 -0.179982,-0.604816 l -0.08374,-0.167422 -0.02301,-0.07744 -0.0481,-0.202999 -0.108825,-0.481342 -0.106732,-0.336942 -0.06488,-0.186256 -0.0398,-0.136032 -0.07535,-0.26369 -0.161149,-0.523198 c -0.0725,-0.194259 -0.156451,-0.360228 -0.230204,-0.498085 l -0.106731,-0.198813 -0.08158,-0.175797 c -0.03928,-0.105911 -0.06289,-0.312577 -0.278339,-0.665502 -0.145559,-0.238409 -0.129528,-0.167504 -0.163234,-0.226025 l -0.04187,-0.0858 c -0.05,-0.112479 -0.12791,-0.339275 -0.303454,-0.621555 -0.07509,-0.120726 -0.167456,-0.253752 -0.295084,-0.387166 l -0.182072,-0.17161 -0.0879,-0.07952 -0.03767,-0.04604 c -0.05014,-0.07381 -0.128993,-0.234694 -0.286712,-0.460409 -0.09027,-0.129172 -0.224868,-0.321208 -0.42065,-0.506459 l -0.03349,-0.03767 -0.05232,-0.0586 -0.06069,-0.06488 -0.02511,-0.02721 -0.07116,-0.07744 c -0.02615,-0.03031 -0.02367,-0.02574 -0.01674,-0.01465 l -0.108826,-0.142313 -0.04604,-0.05441 -0.07534,-0.0879 c -0.0303,-0.04239 -0.06228,-0.08307 -0.09836,-0.121382 l -0.182087,-0.173752 c -0.14473,-0.120045 -0.312886,-0.222726 -0.495993,-0.297179 l -0.29299,-0.104638 -0.140216,-0.0586 c -0.130174,-0.05716 -0.296749,-0.133454 -0.51064,-0.192536 l -0.422742,-0.100455 -0.03768,-0.01466 -0.07952,-0.03348 -0.04604,-0.01883 -0.133938,-0.05022 -0.190443,-0.127661 -0.326479,-0.228114 -0.171606,-0.125569 -0.08371,-0.06069 -0.09627,-0.06697 -0.215558,-0.198817 -0.330661,-0.238577 -0.02511,-0.01674 -0.06278,-0.108825 -0.261596,-0.424836 -0.04604,-0.06906 -0.207184,-0.259507 -0.15696,-0.144403 -0.108826,-0.08371 -0.09627,-0.113012 -0.217648,-0.301362 c -0.04531,-0.07253 -0.12197,-0.224483 -0.292991,-0.422743 -0.150059,-0.173923 -0.30979,-0.304808 -0.454137,-0.405999 l -0.165328,-0.115105 -0.115106,-0.113009 c -0.06787,-0.07753 -0.216258,-0.3106 -0.525289,-0.544125 -0.146088,-0.110358 -0.270895,-0.175808 -0.370423,-0.230207 l -0.364144,-0.192536 -0.179982,-0.102548 -0.395534,-0.198814 -0.14231,-0.07325 -0.09418,-0.08371 c -0.119516,-0.114441 -0.28926,-0.288393 -0.552497,-0.441581 l -0.251136,-0.138125 -0.412278,-0.242761 -0.165332,-0.08371 -0.282526,-0.259508 -0.238578,-0.219743 c -0.09713,-0.09663 -0.214375,-0.239585 -0.414371,-0.410186 l -0.203001,-0.161147 -0.150682,-0.171605 -0.179978,-0.182073 -0.182072,-0.167423 -0.03976,-0.05023 -0.121383,-0.190448 -0.282526,-0.343214 -0.129753,-0.142309 -0.03558,-0.04604 -0.09418,-0.156959 c -0.01414,-0.02638 -0.02839,-0.05277 -0.04395,-0.07743 -0.03994,-0.08318 -0.09896,-0.200962 -0.192537,-0.351589 l -0.165328,-0.246951 -0.0314,-0.04395 -0.04395,-0.09627 -0.104637,-0.280434 c -0.05715,-0.139099 -0.129581,-0.31714 -0.2616,-0.525289 l -0.188351,-0.267877 -0.02929,-0.0858 c -0.046,-0.130853 -0.100398,-0.373549 -0.261601,-0.696898 l -0.138123,-0.246951 -0.07325,-0.129752 -0.03767,-0.113012 -0.10464,-0.349495 c -0.06691,-0.183688 -0.149876,-0.372634 -0.272178,-0.56505 l -0.14231,-0.198816 -0.03976,-0.09418 -0.12557,-0.316011 -0.22602,-0.487618 -0.175793,-0.347405 -0.274154,-0.521105 c -0.07146,-0.142501 -0.1445,-0.337043 -0.336939,-0.600629 -0.02048,-0.02806 -0.07013,-0.104679 -0.167425,-0.200907 l -0.127657,-0.244858 -0.144403,-0.234394 -0.04186,-0.07534 -0.03349,-0.0858 c -0.01577,-0.04111 -0.04518,-0.142066 -0.140214,-0.311826 L 74.097802,51.69782 74.051762,51.6455 c -0.03281,-0.0883 -0.08034,-0.234045 -0.175793,-0.429023 -0.103777,-0.212031 -0.08384,-0.127158 -0.117198,-0.205093 l -0.125565,-0.240671 -0.04814,-0.07535 -0.154866,-0.200906 -0.117199,-0.125569 -0.03557,-0.0586 -0.08162,-0.144402 -0.207187,-0.336938 -0.113012,-0.152772 -0.163236,-0.213467 -0.186257,-0.269967 c -0.0042,-0.0075 -0.06889,-0.206143 -0.244857,-0.516923 -0.141805,-0.250537 -0.329553,-0.472162 -0.552498,-0.657133 l -0.117194,-0.167423 -0.06069,-0.0858 -0.03767,-0.06906 -0.102547,-0.194626 c -0.07087,-0.140619 -0.165861,-0.407917 -0.477156,-0.701084 -0.02817,-0.0265 -0.08949,-0.09018 -0.190444,-0.161146 -0.06035,-0.136056 -0.131267,-0.315191 -0.249043,-0.527381 l -0.127658,-0.205093 -0.13603,-0.182073 -0.04395,-0.05442 -0.02093,-0.03348 -0.102547,-0.179979 -0.127659,-0.226025 -0.07953,-0.159048 -0.171607,-0.292991 -0.140217,-0.211374 c -0.01658,-0.02334 -0.0077,-0.01176 -0.0084,-0.01255 l -0.03767,-0.05441 -0.05023,-0.07534 -0.07743,-0.110918 -0.04814,-0.06069 -0.12557,-0.251134 c -0.04151,-0.0843 -0.100242,-0.21167 -0.209277,-0.370422 -0.134491,-0.195779 -0.254607,-0.317921 -0.288804,-0.357869 l -0.102547,-0.125565 -0.0293,-0.03767 c -0.02194,-0.04247 -0.005,-0.03698 -0.113009,-0.207187 l -0.06488,-0.119288 -0.04395,-0.07535 c -0.03518,-0.06441 0.01837,0.03968 -0.01047,-0.01883 l -0.09417,-0.167422 c -0.01076,-0.01665 -0.01018,-0.01312 -0.0063,-0.0063 l -0.06278,-0.102545 -0.10464,-0.146496 -0.04185,-0.05232 -0.03976,-0.04604 c -0.02744,-0.03835 -0.08391,-0.113709 -0.165328,-0.190443 l -0.09627,-0.0858 -0.196723,-0.133939 -0.04814,-0.0293 -0.02302,-0.01883 -0.05441,-0.04185 -0.04185,-0.03139 c -0.240702,-0.187573 -0.18124,-0.141509 -0.140217,-0.104643 -0.0248,-0.01869 -0.05911,-0.0431 -0.102543,-0.07324 l -0.02721,-0.01465 -0.0021,-0.0021 c -0.0458,-0.05659 -0.09424,-0.10694 -0.148567,-0.146492 -0.293509,-0.213703 -0.474515,-0.198885 -0.581795,-0.19463 l -0.03139,-0.0084 c -0.103909,-0.01314 -0.311292,-0.09059 -0.588075,0.08371 l -0.03767,0.01046 -0.192537,0.07744 -0.140216,0.07743 c -0.02392,0.01485 0.01917,-0.01133 -0.01047,0.0063 l -0.07534,0.04604 -0.07744,0.05023 -0.09836,0.0565 -0.06697,0.03139 -0.05859,0.0293 -0.04814,0.02511 -0.167422,0.09627 -0.04814,0.02721 c -0.108617,0.05143 -0.106559,0.07064 -0.127662,0.0858 l -0.06488,0.05232 -0.05859,0.04395 c -0.135502,0.109078 -0.112977,0.104099 -0.156961,0.152773 l -0.06488,0.06488 -0.0858,0.09836 -0.110915,0.125565 -0.06278,0.07744 -0.07116,0.08999 -0.100454,0.146496 -0.05441,0.07325 -0.06906,0.08162 -0.05442,0.07325 -0.0879,0.110919 c -0.01,0.01409 0.02217,-0.04084 -0.05232,0.07116 l -0.03976,0.05859 -0.07325,0.121382 v 0.0021 l -0.09417,0.175796 -0.04604,0.07534 -0.232299,0.284621 c -0.116557,0.163557 -0.18373,0.303676 -0.238577,0.418557 l -0.07324,0.161146 -0.04604,0.08999 -0.0293,0.02721 c -0.02208,0.02042 -0.04347,0.04364 -0.07324,0.07534 -0.01313,0.01449 -0.02534,0.0289 -0.03767,0.04395 -0.137555,0.160994 -0.223871,0.308358 -0.297176,0.447857 l -0.09417,0.192537 -0.02511,0.05651 -0.03557,0.07743 -0.01256,0.0293 c -0.06794,0.07618 -0.03946,0.04633 -0.04395,0.05441 l -0.07534,0.08999 -0.100454,0.140216 -0.03348,0.04814 -0.0586,0.09208 c 0.001,-0.0016 -0.01059,0.01386 -0.02093,0.03139 l -0.0586,0.08999 -0.04395,0.08162 -0.01883,0.03557 c -0.07675,0.114802 -0.0799,0.135517 -0.08999,0.159053 l -0.07534,0.08371 -0.03348,0.03976 -0.07743,0.100451 -0.05232,0.07116 -0.05023,0.07744 -0.01883,0.02721 -0.02721,0.03767 -0.07325,0.117195 c 0.0081,-0.01493 0.01291,-0.02415 -0.0063,0.0063 -0.03603,0.0073 -0.06998,0.02215 -0.10464,0.03349 l -0.0063,-0.01047 -0.03768,-0.0586 -0.0565,-0.08162 -0.03768,-0.0565 c -0.04625,-0.06893 -0.01597,-0.01534 -0.03348,-0.04604 l -0.102435,-0.163281 c -0.01167,-0.01645 -0.0083,-0.01288 -0.0042,-0.0063 l -0.02511,-0.03767 c -0.01755,-0.0297 -0.04446,-0.07313 -0.08371,-0.125569 -0.02201,-0.03378 -0.05023,-0.074 -0.09418,-0.131845 l -0.03976,-0.07116 -0.0272,-0.06488 -0.07116,-0.196723 -0.01674,-0.04395 -0.01674,-0.04814 -0.03348,-0.102544 -0.07116,-0.203003 c -0.02156,-0.05548 0.0068,0.02324 -0.0084,-0.01883 l -0.110915,-0.249041 -0.07534,-0.125568 -0.04185,-0.07952 -0.02929,-0.05651 c 0.0048,0.0077 0.0048,0.0097 -0.0084,-0.01883 l -0.05442,-0.125569 -0.07743,-0.173698 -0.13603,-0.37252 -0.04186,-0.102545 -0.06697,-0.136032 -0.02093,-0.05023 -0.03139,-0.150678 -0.06069,-0.284621 -0.131844,-0.458321 -0.02721,-0.07952 -0.05232,-0.125569 -0.02511,-0.06697 -0.01466,-0.04814 -0.06697,-0.276248 c -0.0561,-0.220636 -0.119301,-0.455618 -0.236485,-0.713641 l -0.140216,-0.284621 -0.08163,-0.246947 c -0.02995,-0.104514 -0.06024,-0.325903 -0.217648,-0.657137 -0.01651,-0.03474 0.0046,0.01015 -0.0084,-0.01883 l -0.09418,-0.194629 c -0.0066,-0.01249 -0.0067,-0.01126 -0.01674,-0.0314 l -0.05023,-0.150679 -0.06905,-0.205093 -0.150681,-0.443674 -0.100454,-0.24067 -0.02929,-0.06278 -0.04604,-0.0879 -0.0586,-0.136032 -0.05232,-0.129752 -0.215556,-0.588076 -0.138126,-0.284617 c -0.02744,-0.05059 -0.02546,-0.04571 -0.02721,-0.05023 l -0.03767,-0.106732 -0.07953,-0.26997 -0.194629,-0.560866 -0.113008,-0.246951 -0.0565,-0.121382 -0.108826,-0.25532 c -0.07512,-0.183891 -0.149738,-0.40658 -0.30136,-0.675971 l -0.10464,-0.169516 -0.02721,-0.0565 -0.06069,-0.169516 -0.09836,-0.261597 c -0.0693,-0.180408 -0.143528,-0.382407 -0.295085,-0.617373 l -0.200907,-0.276247 -0.0586,-0.108826 c -0.06983,-0.146504 -0.147439,-0.357493 -0.301363,-0.62156 -0.0228,-0.03915 -0.0473,-0.07585 -0.07324,-0.110918 l -0.09627,-0.146496 -0.02721,-0.04186 -0.04814,-0.07325 -0.04604,-0.08999 -0.08372,-0.182074 C 54.92732,32.498003 54.848581,32.27474 54.691349,32.012995 L 54.477883,31.70954 c -0.0065,-0.0082 -0.02367,-0.04066 -0.07952,-0.102544 l -0.06278,-0.16324 c -0.07898,-0.196019 -0.170089,-0.381014 -0.267875,-0.552495 l -0.136035,-0.20928 -0.03767,-0.05232 -0.07743,-0.102549 -0.08581,-0.123475 -0.07534,-0.100451 -0.0858,-0.159053 c -0.0662,-0.142501 -0.12619,-0.338792 -0.320196,-0.627837 -0.07344,-0.109397 -0.0335,-0.03381 -0.06278,-0.0858 l -0.01674,-0.04185 -0.131845,-0.353678 C 52.973942,28.857041 52.90107,28.610743 52.713681,28.32342 l -0.07744,-0.108825 -0.08371,-0.226025 -0.163235,-0.408092 -0.104641,-0.242764 c -0.01306,-0.03014 0.01388,-0.05317 -0.07744,-0.19463 l -0.01465,-0.05231 -0.03976,-0.165334 c -0.03002,-0.159592 -0.03645,-0.370626 -0.18835,-0.726197 l -0.104641,-0.230208 -0.03558,-0.133938 -0.03139,-0.110915 -0.0879,-0.336939 -0.06278,-0.198816 -0.0565,-0.148589 -0.02302,-0.05232 -0.08371,-0.173702 -0.05232,-0.09417 c -0.03382,-0.05804 -0.01209,-0.01336 -0.02721,-0.04186 l -0.04604,-0.140215 -0.152774,-0.44995 -0.0586,-0.140215 -0.0858,-0.182073 -0.05023,-0.08999 -0.08162,-0.127658 -0.07116,-0.09627 -0.04395,-0.05651 c -9.51e-4,-0.007 -9.51e-4,-0.01197 -0.05023,-0.110914 l -0.02721,-0.05442 -0.03767,-0.07325 -0.01674,-0.03348 -0.02511,-0.05442 -0.104641,-0.230206 -0.09208,-0.154866 -0.08371,-0.129751 c -0.0103,-0.01685 -0.02088,-0.03391 -0.03349,-0.05232 0,-0.0014 2.12e-4,-0.0024 -0.02093,-0.02929 -0.03465,-0.04771 -0.07811,-0.09754 -0.12766,-0.146495 -0.03186,-0.0315 -0.142316,-0.261506 -0.625744,-0.332756 z" />
        <path
           id="path8600"
           style="display:inline;fill:#000000;fill-opacity:1;fill-rule:nonzero;stroke:none;stroke-width:3;stroke-dasharray:none;stroke-opacity:1;stroke-linejoin:round"
           d="m 49.564044,21.99278 c -0.28723,-0.04235 -0.498422,0.04563 -0.600632,0.09418 -0.06213,0.02954 -0.148076,0.08643 -0.24067,0.159049 -0.01396,0.01265 -0.09012,0.0502 -0.09627,0.05442 l -0.150681,0.110918 -0.177886,0.159054 -0.148588,0.169515 c -0.0088,0.01042 -0.04306,0.006 -0.108826,0.115102 l -0.08162,0.08162 c -0.02277,0.02498 -0.08506,0.08541 -0.163239,0.211373 -0.311534,0.367981 -0.134474,0.258247 -0.14231,0.278342 -0.01228,0.03145 -0.01188,0.05023 -0.02093,0.07743 l -0.01047,0.01465 -0.07743,0.117195 -0.167424,0.301366 c -0.129303,0.264463 -0.224234,0.538917 -0.307638,0.847575 l -0.08162,0.292992 -0.06278,0.156959 -0.06906,0.152776 -0.09627,0.284618 -0.100454,0.359958 -0.08162,0.410187 -0.07953,0.504365 -0.02302,0.142309 -0.08162,0.439483 -0.0858,0.768055 -0.02721,0.334846 -0.01047,0.146495 -0.02302,0.207187 -0.0293,0.251134 -0.04814,0.650856 -0.0084,0.219744 -0.0084,0.102548 -0.02511,0.18207 -0.03139,0.188353 -0.0293,0.223926 -0.06488,0.623653 -0.02721,0.209276 -0.01674,0.07744 -0.02721,0.113011 -0.01046,0.05232 c -0.06477,0.22664 -0.04152,0.218174 -0.04604,0.25532 l -0.02302,0.21765 c 3.48e-4,-0.01144 -4e-6,-0.02019 -0.0021,-0.0042 l -0.01883,0.177886 -0.06906,0.577608 -0.02511,0.167423 -0.01465,0.07744 c 0.0016,-0.0088 0.0051,-0.02387 -0.0042,0.01256 l -0.03558,0.140215 c -0.06864,0.285722 -0.09575,0.533397 -0.121383,0.751312 l -0.03767,0.339031 -0.02093,0.173704 -0.01255,0.07324 c -0.0034,0.01733 -0.0056,0.03503 -0.0084,0.05232 l -0.0084,0.03557 -0.02721,0.121382 -0.01883,0.09209 -0.02093,0.146492 -0.02511,0.251138 -0.01674,0.464596 -0.01465,0.190443 -0.01255,0.0879 -0.01256,0.09627 -0.01047,0.05442 -0.02511,0.127658 -0.03349,0.182073 c -0.06188,0.361176 -0.06539,0.671268 -0.07743,0.945942 l -0.01883,0.328568 -0.03348,0.529475 -0.0042,0.23439 -0.02302,0.617373 -0.01883,0.284622 -0.0063,0.07325 -0.01256,0.110919 -0.01465,0.148585 -0.02721,0.242764 -0.06069,0.632023 -0.02721,0.196723 -0.06697,0.359959 -0.0858,0.598535 -0.02512,0.297179 -0.02511,0.604816 -0.01674,0.23439 -0.01883,0.320199 -0.02093,0.370422 -0.01674,0.305549 -0.04395,0.588072 -0.04395,0.782702 -0.02511,0.303455 -0.05023,0.514828 -0.02302,0.644576 -0.01674,0.280435 -0.04604,0.387166 -0.03348,0.336939 -0.03976,0.519011 -0.03768,0.380889 -0.03976,0.313919 -0.04395,0.408092 -0.04395,0.64458 -0.02302,0.276248 -0.03558,0.236483 -0.03348,0.232301 -0.05859,0.640393 -0.02302,0.290898 -0.03349,0.288805 -0.0272,0.274154 -0.02721,0.429024 -0.03558,0.531568 -0.01465,0.238577 -0.01465,0.190443 c -0.0023,0.01893 -0.0045,0.0373 -0.0063,0.05651 l -0.03139,0.433206 -0.04395,0.598536 -0.01883,0.190448 -0.03348,0.429019 -0.01883,0.339032 -0.03139,0.470877 -0.02093,0.282528 -0.01883,0.228114 -0.02302,0.265784 -0.02721,0.441577 -0.0314,0.424837 -0.02302,0.267877 -0.03976,0.433206 -0.0586,0.644581 -0.02721,0.376703 -0.05023,0.48134 -0.07324,0.627837 -0.03139,0.349496 -0.02093,0.228112 -0.04604,0.311825 -0.04814,0.514829 -0.04814,0.592259 -0.02511,0.288805 -0.02302,0.234389 -0.02929,0.399724 -0.03349,0.41228 -0.02093,0.276247 -0.01674,0.169516 -0.02093,0.286711 -0.04185,0.437393 -0.05232,0.663414 -0.01674,0.255321 -0.02093,0.188353 -0.03139,0.351589 -0.03976,0.512731 -0.02511,0.311824 -0.05232,0.454138 -0.07116,0.893621 -0.01674,0.284617 -0.04604,0.424837 c -0.03353,0.31018 -0.04386,0.626368 -0.05441,0.918734 l -0.01046,0.292992 -0.04185,0.502267 -0.02511,0.539943 -0.01674,0.301361 -0.0084,0.119288 -0.0084,0.144402 -0.0042,0.117196 -0.0063,0.142309 v 0.113011 l -0.01674,0.521105 -0.02302,0.422744 -0.02093,0.24067 -0.0084,0.0565 -0.09417,0.751312 -0.02721,0.309731 c -0.0028,0.01961 -0.0063,0.04071 -0.0084,0.06069 l -0.01465,0.150683 -0.02929,0.152772 -0.03557,0.16324 -0.05023,0.246946 -0.01674,0.113013 -0.01466,0.121382 -0.02302,0.161146 -0.03767,0.303455 -0.02512,0.159048 -0.02511,0.163239 -0.0063,0.06488 -0.02721,0.133935 -0.03139,0.146495 -0.03557,0.215557 -0.02093,0.119293 -0.02093,0.121381 -0.0293,0.163236 -0.02093,0.136032 c 0.0021,-0.01393 0.0037,-0.03647 -0.0042,0 l -0.03557,0.200906 -0.01465,0.07325 -0.03557,0.167423 -0.0293,0.104641 -0.03139,0.08371 -0.07953,0.269967 -0.03139,0.129756 -0.01883,0.09417 -0.03558,0.175793 -0.03348,0.228113 -0.01255,0.07534 -0.02093,0.163238 -0.01883,0.123472 -0.03139,0.17789 -0.04185,0.133939 -0.02511,0.07325 -0.03767,0.09836 -0.03976,0.100455 c -0.02831,0.07177 0.01853,-0.04715 -0.01883,0.03767 l -0.06906,0.179979 -0.07116,0.196724 c -0.349531,-0.03663 -0.707097,0.128779 -0.933382,0.47506 l -0.129755,0.238581 c -0.06558,0.153869 -0.24936,0.548857 0.01047,1.115453 0.175933,0.383712 0.482933,0.548489 0.648763,0.602727 0.190837,0.06244 0.264678,0.04805 0.31392,0.04814 0.03486,0.0044 0.172858,0.02067 0.387166,-0.02721 0.13989,-0.03127 0.250304,-0.07551 0.364144,-0.129752 0.03284,-0.0095 0.112097,-0.03442 0.238579,-0.102548 l 0.05023,-0.03348 c 0.172485,-0.02854 0.195323,-0.09691 0.213466,-0.140219 0.06115,-0.04371 0.197161,-0.115153 0.320195,-0.309732 l 0.148589,-0.196723 0.150681,-0.265784 0.12138,-0.269967 0.0314,-0.08999 0.0586,-0.163236 c 0.02215,-0.05944 -0.0022,-0.0038 0.01465,-0.04186 l 0.0586,-0.127659 0.03557,-0.09418 0.07953,-0.21137 0.02511,-0.07952 0.07743,-0.236487 c 0.06355,-0.213352 0.08762,-0.387831 0.110919,-0.539939 l 0.02511,-0.156959 0.01883,-0.148589 0.01256,-0.0879 0.01883,-0.121382 0.02302,-0.117194 0.01674,-0.08371 0.02302,-0.07952 0.05232,-0.146496 0.05441,-0.188353 0.05232,-0.215557 c 0.01543,-0.07746 0.0017,-0.02356 0.0042,-0.03348 l 0.04395,-0.20928 0.01047,-0.05441 0.01255,-0.08371 0.0293,-0.140219 0.01465,-0.08999 0.0293,-0.167423 0.02093,-0.119292 0.0293,-0.171606 0.01674,-0.104641 0.02721,-0.123472 0.03139,-0.159053 0.0293,-0.188353 0.0063,-0.04814 0.01674,-0.117194 0.02721,-0.177887 0.04604,-0.336938 0.02721,-0.207187 0.01047,-0.09627 0.02721,-0.121382 0.03767,-0.175797 0.06697,-0.372515 0.01465,-0.146496 c 0.0047,-0.02886 0.0098,-0.05824 0.01256,-0.0879 l 0.03139,-0.364142 0.07534,-0.606909 0.02512,-0.165333 0.02929,-0.341122 0.0293,-0.539942 0.01674,-0.634113 0.0042,-0.106732 0.0021,-0.07953 0.0084,-0.117194 0.0084,-0.142309 0.01674,-0.318105 0.02721,-0.527382 0.04185,-0.512734 0.01255,-0.347402 0.03976,-0.719922 0.0565,-0.535751 0.01674,-0.307642 0.05441,-0.713642 0.06488,-0.562958 0.0272,-0.336939 0.03558,-0.477157 0.02721,-0.288804 0.02929,-0.286711 0.01674,-0.259508 0.04814,-0.62365 0.04395,-0.445763 0.02093,-0.276248 0.01674,-0.198817 0.02093,-0.265784 0.03557,-0.42902 0.02721,-0.366239 0.02093,-0.2323 0.02511,-0.292992 0.05232,-0.627836 0.0293,-0.347402 0.05442,-0.374609 0.02721,-0.286711 0.0293,-0.332755 0.06278,-0.525289 0.06697,-0.661319 0.02512,-0.341126 0.0565,-0.623654 0.03976,-0.429019 0.02511,-0.295085 0.03557,-0.47506 0.02511,-0.41228 0.01883,-0.228114 0.02302,-0.25532 0.02093,-0.292992 0.03557,-0.525292 0.01674,-0.311825 0.02511,-0.326475 0.02302,-0.236483 0.04814,-0.632023 0.02511,-0.372516 c 0.0017,-0.01529 0.0028,-0.03055 0.0042,-0.04604 l 0.02302,-0.29299 0.01256,-0.207187 0.03767,-0.571333 0.02302,-0.366235 0.01674,-0.17161 0.04185,-0.362052 0.02721,-0.320198 0.04185,-0.510639 0.02511,-0.165332 0.05023,-0.355772 0.03558,-0.37461 0.03976,-0.613186 0.03348,-0.299271 0.04395,-0.347402 0.04604,-0.468784 0.03767,-0.502271 0.02302,-0.234391 0.0565,-0.50436 0.02511,-0.38926 0.01883,-0.585983 0.04186,-0.414369 0.03348,-0.40391 0.03976,-0.730385 0.05023,-0.671783 0.01674,-0.295086 0.02093,-0.374608 0.01674,-0.290899 0.01674,-0.259504 0.02511,-0.579702 0.01674,-0.196723 0.05023,-0.362053 0.08371,-0.445763 0.03976,-0.295084 0.06697,-0.686435 0.03139,-0.272061 0.0042,-0.06488 0.01883,-0.159053 0.01047,-0.129752 0.02511,-0.368328 0.02511,-0.707365 0.0042,-0.192537 0.02721,-0.439486 0.02302,-0.391349 0.03977,-0.602723 0.03348,-0.167427 c 0.0067,-0.03759 0.0039,-0.03095 0,-0.01674 l 0.02511,-0.119288 0.01674,-0.09627 0.02093,-0.140219 0.02302,-0.17998 0.02721,-0.343215 0.01465,-0.437393 0.01047,-0.0879 0.0084,-0.04186 0.0084,-0.03349 0.03976,-0.175792 c 0.0085,-0.04347 0.01459,-0.08648 0.01883,-0.129752 l 0.01465,-0.0879 0.0293,-0.244858 0.03767,-0.328568 0.06488,-0.433206 0.02511,-0.102546 0.04185,-0.179979 0.02302,-0.125569 0.04185,-0.278341 0.07534,-0.625742 0.01256,-0.131846 0.01674,-0.148589 0.0063,-0.0565 0.0084,-0.03349 c 0.0095,-0.04847 -0.0035,0.01052 0.0042,-0.02302 l 0.02721,-0.113008 0.03976,-0.192536 0.0586,-0.422743 0.06069,-0.594353 0.01256,-0.106732 0.0272,-0.159052 0.05023,-0.353683 0.01883,-0.263691 0.0084,-0.207187 0.03558,-0.493896 0.02929,-0.240671 0.0293,-0.278341 0.01256,-0.173703 0.02511,-0.316012 0.06278,-0.569239 0.06488,-0.345308 0.04186,-0.244858 0.06697,-0.4353 0.05023,-0.259503 0.06069,-0.213467 c 0.01069,-0.0359 0.0055,-0.02751 0.0042,-0.02511 l 0.0586,-0.125565 0.148588,-0.387166 0.119291,-0.414374 0.131845,-0.385072 0.03558,-0.06697 0.02302,-0.03558 0.0063,0.0084 c 0.0013,0.0031 0.0021,0.0061 0.01255,0.02929 l 0.106734,0.313918 0.09417,0.278341 0.108826,0.244857 0.09836,0.173704 0.01465,0.03139 0.01255,0.04185 0.06697,0.261597 0.04604,0.167423 0.05232,0.190443 0.02093,0.06697 c 0.02131,0.06825 0.02242,0.103714 0.104636,0.274154 l 0.06069,0.127663 0.03976,0.211369 0.08162,0.349496 0.03557,0.133939 0.07952,0.24067 v 0.0021 c 0.03099,0.0909 0.03265,0.149814 0.123476,0.286711 l 0.07743,0.179979 0.129752,0.326476 0.108825,0.286715 0.113013,0.242764 0.125565,0.207182 0.0565,0.07744 0.06697,0.18835 0.175797,0.472971 0.148588,0.309735 0.163236,0.24904 0.129755,0.290898 0.257411,0.46669 0.163239,0.226025 c 0.01786,0.02394 -0.01124,-0.01304 0.02929,0.04604 l 0.108826,0.146495 0.03139,0.04395 c 0.0099,0.01381 -3.76e-4,-0.0037 0.0042,0.0042 l 0.119291,0.242763 0.09208,0.230208 0.0879,0.184162 0.0858,0.150682 0.06906,0.106732 c 0.04883,0.07229 0.088,0.125713 0.154863,0.196724 l 0.04395,0.0586 0.117194,0.278341 0.184165,0.408093 0.06488,0.125569 0.0879,0.156959 0.09836,0.150679 0.02721,0.03976 0.04395,0.06069 0.04185,0.06697 0.200905,0.431114 0.173704,0.318105 c 0.144834,0.241207 0.238233,0.339212 0.240671,0.343215 l 0.06278,0.156959 0.08162,0.223931 0.0858,0.228113 0.146496,0.318102 0.03767,0.06906 0.09627,0.150679 -0.0021,0.0021 0.165332,0.391352 0.142309,0.328565 0.07116,0.156959 0.07325,0.159053 0.106733,0.309735 0.07952,0.274154 0.100455,0.290898 0.163235,0.341125 0.03349,0.06906 0.175793,0.487621 0.08371,0.207183 0.100453,0.234394 0.08162,0.165329 0.123474,0.362052 0.09208,0.267878 0.06906,0.203 0.106729,0.24695 0.04604,0.0879 0.02093,0.05023 0.03557,0.07534 c 0.03277,0.06901 0.0018,0.03746 0.06488,0.257414 l 0.182071,0.527382 0.173701,0.364146 0.08371,0.274157 0.06697,0.274155 0.05023,0.182073 0.06278,0.179979 0.03139,0.08162 0.03768,0.09209 0.06069,0.21974 0.03976,0.18626 0.05023,0.238576 0.04814,0.169517 0.03349,0.110918 0.02929,0.07952 0.09627,0.20928 c 0.02208,0.04143 -0.01398,-0.0246 0.01047,0.02511 l 0.01883,0.03558 0.14231,0.389259 0.133941,0.305549 0.05232,0.117194 0.08999,0.182073 0.01465,0.02929 0.03558,0.06906 0.07324,0.129752 0.01465,0.03976 0.05442,0.163235 0.02093,0.06069 0.04186,0.110919 0.06906,0.194629 0.140216,0.324381 0.07743,0.138126 0.0565,0.09627 0.04185,0.06488 c 0.09263,0.21159 0.107134,0.162847 0.140217,0.20928 0.01219,0.01713 0.02297,0.03406 0.03558,0.05023 l 0.02721,0.03976 0.03348,0.04814 0.121384,0.18835 0.04604,0.06906 0.05859,0.0858 0.06906,0.102548 c 0.0303,0.04231 -0.0192,-0.02807 0.01256,0.02093 l 0.01465,0.02721 0.156957,0.22602 0.146496,0.163236 c 0.09298,0.09114 0.189684,0.154665 0.238577,0.184165 l 0.06278,0.04395 0.200908,0.115102 0.221835,0.08371 c 0.204697,0.06045 0.356409,0.06715 0.491806,0.07116 h 0.161146 c 0.01766,-2e-4 0.02047,0.01846 0.215555,-0.0063 l 0.192537,-0.04395 c 0.06809,-0.0224 0.181752,-0.05741 0.307642,-0.154866 l 0.102547,-0.03348 0.08371,-0.03558 0.0586,-0.0293 c 0.108547,-0.05044 0.204669,-0.117887 0.288804,-0.200906 l 0.03976,-0.03557 0.08371,-0.0879 c -0.01073,0.01201 -0.01602,0.0209 -0.0042,0.0084 0.02375,-0.0251 0.03702,-0.04049 0.04395,-0.04814 0.02003,-0.02177 0.03787,-0.04323 0.05651,-0.06697 l 0.02302,-0.02511 0.07324,-0.100455 0.05442,-0.07534 c 0.01097,-0.01637 -0.0081,0.01323 0.0042,-0.0042 l 0.0565,-0.08371 0.03348,-0.05442 0.0293,-0.04814 0.06278,-0.08789 c 0.02995,-0.04535 -0.0012,-0.0041 0.0063,-0.01465 l 0.03557,-0.04814 c 0.14271,-0.09226 0.141289,-0.138078 0.15696,-0.173703 0.01505,-0.02094 0.03384,-0.0465 0.06069,-0.08789 l 0.04395,-0.06278 0.06488,-0.110918 0.0314,-0.0565 0.0565,-0.100454 0.07744,-0.14022 0.08162,-0.117195 0.06069,-0.07116 0.03139,-0.04185 0.0565,-0.06906 0.01674,-0.02093 0.06697,-0.09417 0.04185,-0.07116 0.06906,-0.121382 0.07325,-0.156959 c -0.0022,0.0051 -2.82e-4,0.0042 0.01883,-0.03767 l 0.02511,-0.05859 0.02093,-0.04395 0.03557,-0.07116 c 0.007,-0.01333 -0.0042,-0.0037 -0.0063,-0.0021 l 0.05859,-0.0565 0.04814,-0.05232 0.09208,-0.106732 c 0.0141,-0.01765 0.0045,-0.006 0.0063,-0.0084 l 0.144402,-0.205093 0.01466,-0.02721 0.08371,-0.150679 0.07953,-0.156959 0.07952,-0.167427 c 0.03294,-0.06905 -0.0055,-0.01304 0.02093,-0.05022 l 0.159052,-0.188353 c 0.135642,-0.170681 0.236796,-0.339008 0.322289,-0.512731 0.0076,-0.01549 0.008,-0.01825 0.01883,-0.03767 l 0.02511,-0.0314 0.02302,-0.02929 0.03348,-0.04395 c 0.01668,-0.02205 0.0087,-0.01067 0.0084,-0.01047 l 0.05441,-0.06697 0.123473,-0.159053 0.06488,-0.09208 0.02511,-0.03557 0.02929,-0.04186 0.03767,-0.04604 0.07116,-0.07953 0.07116,-0.08162 c 0.02326,-0.01569 0.04408,-0.03044 0.08162,-0.0565 l 0.03768,-0.01883 0.07534,-0.03767 0.133938,-0.06906 0.106733,-0.06069 c 0.03688,0.02531 0.0667,0.05186 0.119291,0.07744 l 0.08371,0.06488 h 0.0021 l 0.148588,0.100455 0.02093,0.0293 0.03768,0.06069 0.02929,0.05231 0.06069,0.104643 0.03767,0.07534 0.03139,0.05651 0.05023,0.08371 0.07534,0.142308 0.08999,0.144403 0.09208,0.125569 0.02302,0.03139 0.173703,0.211374 0.136031,0.161142 0.03139,0.06488 c 0.06063,0.123127 0.12915,0.280579 0.253228,0.477154 l 0.144403,0.203004 0.02721,0.03976 0.05232,0.07534 0.02093,0.03348 0.05023,0.07116 0.06906,0.104643 0.07744,0.133938 0.0565,0.113008 0.188351,0.336943 0.119286,0.213463 0.104641,0.165329 0.131845,0.173703 0.06069,0.07743 0.152774,0.336938 0.100455,0.213467 0.175792,0.282525 0.110919,0.121382 c 0.04346,0.05856 0.09207,0.113563 0.146495,0.163239 0.05196,0.04739 0.102169,0.08582 0.150678,0.119289 l 0.0314,0.06278 0.14231,0.27206 0.09208,0.16324 0.161146,0.236484 0.09208,0.133938 0.117194,0.16324 0.213466,0.236484 0.117194,0.08999 c 0.02072,0.05232 0.08176,0.233113 0.238578,0.508548 0.123348,0.216673 0.254503,0.392718 0.374612,0.548308 l 0.133938,0.177886 0.07534,0.100456 0.09418,0.159052 0.0879,0.150682 0.100454,0.169512 0.219745,0.286715 0.06278,0.06278 c 0.08145,0.175565 0.117706,0.20559 0.129756,0.230208 l 0.110915,0.288803 0.150682,0.316008 0.161145,0.232301 0.04395,0.05023 0.06069,0.152772 0.169514,0.326475 0.148588,0.244858 0.07952,0.159052 0.161146,0.272064 0.136031,0.169512 0.05859,0.06069 0.123473,0.246952 0.286712,0.546218 0.159053,0.313919 0.165332,0.359958 0.115102,0.286711 0.110919,0.251138 c 0.141734,0.284958 0.256317,0.403378 0.269968,0.424833 l 0.0293,0.07534 0.0565,0.198817 0.07535,0.230206 c 0.09695,0.278197 0.214566,0.465382 0.272061,0.565053 l 0.06697,0.113011 0.136032,0.401813 0.0858,0.2323 c 0.09796,0.23945 0.209781,0.391637 0.2616,0.46669 l 0.12138,0.169517 0.0586,0.136032 0.07952,0.215557 0.15068,0.341125 0.211374,0.345313 0.09417,0.136028 0.154868,0.301361 c 0.03281,0.0612 0.06863,0.117599 0.108822,0.169516 l 0.110918,0.184166 0.148589,0.203 0.261597,0.292992 0.07116,0.08371 0.06278,0.104638 0.232299,0.309736 c 0.159878,0.186492 0.284748,0.281619 0.343218,0.336938 l 0.0879,0.0879 0.129753,0.152772 c 0.206264,0.22532 0.3618,0.317152 0.399723,0.349496 l 0.290898,0.297178 0.311824,0.288804 c 0.103846,0.09423 0.228329,0.228899 0.429022,0.380886 0.208214,0.157631 0.363955,0.218479 0.441578,0.259508 l 0.326475,0.194629 0.265786,0.146492 0.159049,0.144402 0.318107,0.269972 c 0.185857,0.134495 0.337823,0.20201 0.433207,0.24904 l 0.33694,0.169516 0.138123,0.07953 0.389259,0.205093 0.119287,0.07116 0.200908,0.238576 c 0.111786,0.127811 0.240556,0.256166 0.387167,0.37461 l 0.27834,0.20091 0.0565,0.04604 0.07952,0.131845 c 0.131044,0.209829 0.264335,0.384225 0.382981,0.531569 l 0.251135,0.286711 c 0.100503,0.101352 0.183994,0.168575 0.230206,0.203 l 0.205094,0.332755 0.117198,0.196723 0.110916,0.15696 0.154867,0.184162 0.129752,0.119293 0.198815,0.150678 c 0.02239,0.01465 -0.01571,-0.0094 0.01883,0.01465 l 0.06906,0.04604 0.108826,0.07534 0.165331,0.154866 0.156957,0.127658 0.148588,0.104642 c 0.01957,0.01349 -0.01224,-0.0093 0.0084,0.0063 l 0.203001,0.146495 0.378795,0.267878 0.324381,0.21137 0.244857,0.121381 0.144403,0.05023 c 0.03214,0.01021 -0.02417,-0.006 0.01883,0.01046 l 0.03348,0.01255 0.04604,0.01883 0.182072,0.06697 c 0.232278,0.07457 0.401967,0.0975 0.495992,0.123475 l 0.253229,0.102549 0.238577,0.09836 0.209277,0.07116 0.05441,0.06697 0.03976,0.04814 c 0.02504,0.03106 -0.02088,-0.03556 0.01256,0.01255 l 0.163239,0.203001 0.131844,0.146495 0.04604,0.04814 0.02929,0.03348 c 0.07191,0.08318 0.06454,0.07174 0.07116,0.07534 l 0.117194,0.123475 0.121384,0.159053 0.269968,0.433206 0.249043,0.313918 0.232299,0.223927 0.06697,0.06488 0.14231,0.318105 0.159053,0.318102 0.175793,0.25532 0.0879,0.251134 0.192536,0.433211 0.138123,0.259503 0.0879,0.186261 0.09418,0.309731 0.08163,0.295084 0.0565,0.18835 0.09209,0.26369 0.05231,0.159053 0.07325,0.343219 0.07743,0.324382 0.119286,0.366235 0.119293,0.253231 c 0.02319,0.05315 -0.0078,-0.02107 0.01047,0.07116 l 0.02933,0.198812 0.05018,0.320198 0.08791,0.35996 0.09836,0.276247 0.08582,0.278341 0.06281,0.234394 0.06696,0.255317 c 0.07388,0.25394 0.150387,0.393354 0.161149,0.420654 l 0.03348,0.108824 0.07743,0.257411 0.08999,0.282528 c 0.0616,0.178886 0.135186,0.332243 0.196723,0.445763 l 0.09418,0.15696 0.05234,0.09627 0.104638,0.228113 0.05649,0.146495 0.09208,0.228114 0.133932,0.246951 0.06696,0.108825 0.07535,0.115101 0.104638,0.129757 0.136033,0.129751 0.104639,0.09627 c 0.158207,0.121645 0.23138,0.157295 0.272059,0.167422 0.04481,0.03634 0.09355,0.06761 0.144399,0.09627 0.09971,0.0562 0.158969,0.261049 0.738758,0.115106 0.236528,-0.05952 0.5994,-0.315047 0.745037,-0.707365 0.183175,-0.493509 0.05303,-0.810029 -0.01047,-0.973145 -0.07466,-0.191816 -0.138664,-0.27309 -0.19463,-0.343219 -0.177845,-0.222918 -0.294457,-0.277212 -0.426926,-0.343219 l -0.06904,-0.04604 -0.07951,-0.203 -0.196723,-0.422743 -0.144402,-0.259508 c -0.03218,-0.05208 -0.0087,-0.0093 -0.02301,-0.03557 l -0.02509,-0.0586 -0.06065,-0.192536 -0.08582,-0.280435 -0.09627,-0.284617 -0.08158,-0.18835 -0.05026,-0.19463 -0.07535,-0.276251 -0.148587,-0.479248 -0.0481,-0.125565 -0.01462,-0.0586 -0.03348,-0.215557 -0.05649,-0.355772 c -0.03296,-0.163595 -0.07388,-0.361644 -0.179982,-0.604816 l -0.08374,-0.167422 -0.02301,-0.07744 -0.0481,-0.202999 -0.108825,-0.481342 -0.106732,-0.336942 -0.06488,-0.186256 -0.0398,-0.136032 -0.07535,-0.26369 -0.161149,-0.523198 c -0.0725,-0.194259 -0.156451,-0.360228 -0.230204,-0.498085 l -0.106731,-0.198813 -0.08158,-0.175797 c -0.03928,-0.105911 -0.06289,-0.312577 -0.278339,-0.665502 -0.145559,-0.238409 -0.129528,-0.167504 -0.163234,-0.226025 l -0.04187,-0.0858 c -0.05,-0.112479 -0.12791,-0.339275 -0.303454,-0.621555 -0.07509,-0.120726 -0.167456,-0.253752 -0.295084,-0.387166 l -0.182072,-0.17161 -0.0879,-0.07952 -0.03767,-0.04604 c -0.05014,-0.07381 -0.128993,-0.234694 -0.286712,-0.460409 -0.09027,-0.129172 -0.224868,-0.321208 -0.42065,-0.506459 l -0.03349,-0.03767 -0.05232,-0.0586 -0.06069,-0.06488 -0.02511,-0.02721 -0.07116,-0.07744 c -0.02615,-0.03031 -0.02367,-0.02574 -0.01674,-0.01465 l -0.108826,-0.142313 -0.04604,-0.05441 -0.07534,-0.0879 c -0.0303,-0.04239 -0.06228,-0.08307 -0.09836,-0.121382 l -0.182087,-0.173752 c -0.14473,-0.120045 -0.312886,-0.222726 -0.495993,-0.297179 l -0.29299,-0.104638 -0.140216,-0.0586 c -0.130174,-0.05716 -0.296749,-0.133454 -0.51064,-0.192536 l -0.422742,-0.100455 -0.03768,-0.01466 -0.07952,-0.03348 -0.04604,-0.01883 -0.133938,-0.05022 -0.190443,-0.127661 -0.326479,-0.228114 -0.171606,-0.125569 -0.08371,-0.06069 -0.09627,-0.06697 -0.215558,-0.198817 -0.330661,-0.238577 -0.02511,-0.01674 -0.06278,-0.108825 -0.261596,-0.424836 -0.04604,-0.06906 -0.207184,-0.259507 -0.15696,-0.144403 -0.108826,-0.08371 -0.09627,-0.113012 -0.217648,-0.301362 c -0.04531,-0.07253 -0.12197,-0.224483 -0.292991,-0.422743 -0.150059,-0.173923 -0.30979,-0.304808 -0.454137,-0.405999 l -0.165328,-0.115105 -0.115106,-0.113009 c -0.06787,-0.07753 -0.216258,-0.3106 -0.525289,-0.544125 -0.146088,-0.110358 -0.270895,-0.175808 -0.370423,-0.230207 l -0.364144,-0.192536 -0.179982,-0.102548 -0.395534,-0.198814 -0.14231,-0.07325 -0.09418,-0.08371 c -0.119516,-0.114441 -0.28926,-0.288393 -0.552497,-0.441581 l -0.251136,-0.138125 -0.412278,-0.242761 -0.165332,-0.08371 -0.282526,-0.259508 -0.238578,-0.219743 c -0.09713,-0.09663 -0.214375,-0.239585 -0.414371,-0.410186 l -0.203001,-0.161147 -0.150682,-0.171605 -0.179978,-0.182073 -0.182072,-0.167423 -0.03976,-0.05023 -0.121383,-0.190448 -0.282526,-0.343214 -0.129753,-0.142309 -0.03558,-0.04604 -0.09418,-0.156959 c -0.01414,-0.02638 -0.02839,-0.05277 -0.04395,-0.07743 -0.03994,-0.08318 -0.09896,-0.200962 -0.192537,-0.351589 l -0.165328,-0.246951 -0.0314,-0.04395 -0.04395,-0.09627 -0.104637,-0.280434 c -0.05715,-0.139099 -0.129581,-0.31714 -0.2616,-0.525289 l -0.188351,-0.267877 -0.02929,-0.0858 c -0.046,-0.130853 -0.100398,-0.373549 -0.261601,-0.696898 l -0.138123,-0.246951 -0.07325,-0.129752 -0.03767,-0.113012 -0.10464,-0.349495 c -0.06691,-0.183688 -0.149876,-0.372634 -0.272178,-0.56505 l -0.14231,-0.198816 -0.03976,-0.09418 -0.12557,-0.316011 -0.22602,-0.487618 -0.175793,-0.347405 -0.274154,-0.521105 c -0.07146,-0.142501 -0.1445,-0.337043 -0.336939,-0.600629 -0.02048,-0.02806 -0.07013,-0.104679 -0.167425,-0.200907 l -0.127657,-0.244858 -0.144403,-0.234394 -0.04186,-0.07534 -0.03349,-0.0858 c -0.01577,-0.04111 -0.04518,-0.142066 -0.140214,-0.311826 L 74.097802,51.69782 74.051762,51.6455 c -0.03281,-0.0883 -0.08034,-0.234045 -0.175793,-0.429023 -0.103777,-0.212031 -0.08384,-0.127158 -0.117198,-0.205093 l -0.125565,-0.240671 -0.04814,-0.07535 -0.154866,-0.200906 -0.117199,-0.125569 -0.03557,-0.0586 -0.08162,-0.144402 -0.207187,-0.336938 -0.113012,-0.152772 -0.163236,-0.213467 -0.186257,-0.269967 c -0.0042,-0.0075 -0.06889,-0.206143 -0.244857,-0.516923 -0.141805,-0.250537 -0.329553,-0.472162 -0.552498,-0.657133 l -0.117194,-0.167423 -0.06069,-0.0858 -0.03767,-0.06906 -0.102547,-0.194626 c -0.07087,-0.140619 -0.165861,-0.407917 -0.477156,-0.701084 -0.02817,-0.0265 -0.08949,-0.09018 -0.190444,-0.161146 -0.06035,-0.136056 -0.131267,-0.315191 -0.249043,-0.527381 l -0.127658,-0.205093 -0.13603,-0.182073 -0.04395,-0.05442 -0.02093,-0.03348 -0.102547,-0.179979 -0.127659,-0.226025 -0.07953,-0.159048 -0.171607,-0.292991 -0.140217,-0.211374 c -0.01658,-0.02334 -0.0077,-0.01176 -0.0084,-0.01255 l -0.03767,-0.05441 -0.05023,-0.07534 -0.07743,-0.110918 -0.04814,-0.06069 -0.12557,-0.251134 c -0.04151,-0.0843 -0.100242,-0.21167 -0.209277,-0.370422 -0.134491,-0.195779 -0.254607,-0.317921 -0.288804,-0.357869 l -0.102547,-0.125565 -0.0293,-0.03767 c -0.02194,-0.04247 -0.005,-0.03698 -0.113009,-0.207187 l -0.06488,-0.119288 -0.04395,-0.07535 c -0.03518,-0.06441 0.01837,0.03968 -0.01047,-0.01883 l -0.09417,-0.167422 c -0.01076,-0.01665 -0.01018,-0.01312 -0.0063,-0.0063 l -0.06278,-0.102545 -0.10464,-0.146496 -0.04185,-0.05232 -0.03976,-0.04604 c -0.02744,-0.03835 -0.08391,-0.113709 -0.165328,-0.190443 l -0.09627,-0.0858 -0.196723,-0.133939 -0.04814,-0.0293 -0.02302,-0.01883 -0.05441,-0.04185 -0.04185,-0.03139 c -0.240702,-0.187573 -0.18124,-0.141509 -0.140217,-0.104643 -0.0248,-0.01869 -0.05911,-0.0431 -0.102543,-0.07324 l -0.02721,-0.01465 -0.0021,-0.0021 c -0.0458,-0.05659 -0.09424,-0.10694 -0.148567,-0.146492 -0.293509,-0.213703 -0.474515,-0.198885 -0.581795,-0.19463 l -0.03139,-0.0084 c -0.103909,-0.01314 -0.311292,-0.09059 -0.588075,0.08371 l -0.03767,0.01046 -0.192537,0.07744 -0.140216,0.07743 c -0.02392,0.01485 0.01917,-0.01133 -0.01047,0.0063 l -0.07534,0.04604 -0.07744,0.05023 -0.09836,0.0565 -0.06697,0.03139 -0.05859,0.0293 -0.04814,0.02511 -0.167422,0.09627 -0.04814,0.02721 c -0.108617,0.05143 -0.106559,0.07064 -0.127662,0.0858 l -0.06488,0.05232 -0.05859,0.04395 c -0.135502,0.109078 -0.112977,0.104099 -0.156961,0.152773 l -0.06488,0.06488 -0.0858,0.09836 -0.110915,0.125565 -0.06278,0.07744 -0.07116,0.08999 -0.100454,0.146496 -0.05441,0.07325 -0.06906,0.08162 -0.05442,0.07325 -0.0879,0.110919 c -0.01,0.01409 0.02217,-0.04084 -0.05232,0.07116 l -0.03976,0.05859 -0.07325,0.121382 v 0.0021 l -0.09417,0.175796 -0.04604,0.07534 -0.232299,0.284621 c -0.116557,0.163557 -0.18373,0.303676 -0.238577,0.418557 l -0.07324,0.161146 -0.04604,0.08999 -0.0293,0.02721 c -0.02208,0.02042 -0.04347,0.04364 -0.07324,0.07534 -0.01313,0.01449 -0.02534,0.0289 -0.03767,0.04395 -0.137555,0.160994 -0.223871,0.308358 -0.297176,0.447857 l -0.09417,0.192537 -0.02511,0.05651 -0.03557,0.07743 -0.01256,0.0293 c -0.06794,0.07618 -0.03946,0.04633 -0.04395,0.05441 l -0.07534,0.08999 -0.100454,0.140216 -0.03348,0.04814 -0.0586,0.09208 c 0.001,-0.0016 -0.01059,0.01386 -0.02093,0.03139 l -0.0586,0.08999 -0.04395,0.08162 -0.01883,0.03557 c -0.07675,0.114802 -0.0799,0.135517 -0.08999,0.159053 l -0.07534,0.08371 -0.03348,0.03976 -0.07743,0.100451 -0.05232,0.07116 -0.05023,0.07744 -0.01883,0.02721 -0.02721,0.03767 -0.07325,0.117195 c 0.0081,-0.01493 0.01291,-0.02415 -0.0063,0.0063 -0.03603,0.0073 -0.06998,0.02215 -0.10464,0.03349 l -0.0063,-0.01047 -0.03768,-0.0586 -0.0565,-0.08162 -0.03768,-0.0565 c -0.04625,-0.06893 -0.01597,-0.01534 -0.03348,-0.04604 l -0.102435,-0.163281 c -0.01167,-0.01645 -0.0083,-0.01288 -0.0042,-0.0063 l -0.02511,-0.03767 c -0.01755,-0.0297 -0.04446,-0.07313 -0.08371,-0.125569 -0.02201,-0.03378 -0.05023,-0.074 -0.09418,-0.131845 l -0.03976,-0.07116 -0.0272,-0.06488 -0.07116,-0.196723 -0.01674,-0.04395 -0.01674,-0.04814 -0.03348,-0.102544 -0.07116,-0.203003 c -0.02156,-0.05548 0.0068,0.02324 -0.0084,-0.01883 l -0.110915,-0.249041 -0.07534,-0.125568 -0.04185,-0.07952 -0.02929,-0.05651 c 0.0048,0.0077 0.0048,0.0097 -0.0084,-0.01883 l -0.05442,-0.125569 -0.07743,-0.173698 -0.13603,-0.37252 -0.04186,-0.102545 -0.06697,-0.136032 -0.02093,-0.05023 -0.03139,-0.150678 -0.06069,-0.284621 -0.131844,-0.458321 -0.02721,-0.07952 -0.05232,-0.125569 -0.02511,-0.06697 -0.01466,-0.04814 -0.06697,-0.276248 c -0.0561,-0.220636 -0.119301,-0.455618 -0.236485,-0.713641 l -0.140216,-0.284621 -0.08163,-0.246947 c -0.02995,-0.104514 -0.06024,-0.325903 -0.217648,-0.657137 -0.01651,-0.03474 0.0046,0.01015 -0.0084,-0.01883 l -0.09418,-0.194629 c -0.0066,-0.01249 -0.0067,-0.01126 -0.01674,-0.0314 l -0.05023,-0.150679 -0.06905,-0.205093 -0.150681,-0.443674 -0.100454,-0.24067 -0.02929,-0.06278 -0.04604,-0.0879 -0.0586,-0.136032 -0.05232,-0.129752 -0.215556,-0.588076 -0.138126,-0.284617 c -0.02744,-0.05059 -0.02546,-0.04571 -0.02721,-0.05023 l -0.03767,-0.106732 -0.07953,-0.26997 -0.194629,-0.560866 -0.113008,-0.246951 -0.0565,-0.121382 -0.108826,-0.25532 c -0.07512,-0.183891 -0.149738,-0.40658 -0.30136,-0.675971 l -0.10464,-0.169516 -0.02721,-0.0565 -0.06069,-0.169516 -0.09836,-0.261597 c -0.0693,-0.180408 -0.143528,-0.382407 -0.295085,-0.617373 l -0.200907,-0.276247 -0.0586,-0.108826 c -0.06983,-0.146504 -0.147439,-0.357493 -0.301363,-0.62156 -0.0228,-0.03915 -0.0473,-0.07585 -0.07324,-0.110918 l -0.09627,-0.146496 -0.02721,-0.04186 -0.04814,-0.07325 -0.04604,-0.08999 -0.08372,-0.182074 C 54.92732,32.498003 54.848581,32.27474 54.691349,32.012995 L 54.477883,31.70954 c -0.0065,-0.0082 -0.02367,-0.04066 -0.07952,-0.102544 l -0.06278,-0.16324 c -0.07898,-0.196019 -0.170089,-0.381014 -0.267875,-0.552495 l -0.136035,-0.20928 -0.03767,-0.05232 -0.07743,-0.102549 -0.08581,-0.123475 -0.07534,-0.100451 -0.0858,-0.159053 c -0.0662,-0.142501 -0.12619,-0.338792 -0.320196,-0.627837 -0.07344,-0.109397 -0.0335,-0.03381 -0.06278,-0.0858 l -0.01674,-0.04185 -0.131845,-0.353678 C 52.973942,28.857041 52.90107,28.610743 52.713681,28.32342 l -0.07744,-0.108825 -0.08371,-0.226025 -0.163235,-0.408092 -0.104641,-0.242764 c -0.01306,-0.03014 0.01388,-0.05317 -0.07744,-0.19463 l -0.01465,-0.05231 -0.03976,-0.165334 c -0.03002,-0.159592 -0.03645,-0.370626 -0.18835,-0.726197 l -0.104641,-0.230208 -0.03558,-0.133938 -0.03139,-0.110915 -0.0879,-0.336939 -0.06278,-0.198816 -0.0565,-0.148589 -0.02302,-0.05232 -0.08371,-0.173702 -0.05232,-0.09417 c -0.03382,-0.05804 -0.01209,-0.01336 -0.02721,-0.04186 l -0.04604,-0.140215 -0.152774,-0.44995 -0.0586,-0.140215 -0.0858,-0.182073 -0.05023,-0.08999 -0.08162,-0.127658 -0.07116,-0.09627 -0.04395,-0.05651 c -9.51e-4,-0.007 -9.51e-4,-0.01197 -0.05023,-0.110914 l -0.02721,-0.05442 -0.03767,-0.07325 -0.01674,-0.03348 -0.02511,-0.05442 -0.104641,-0.230206 -0.09208,-0.154866 -0.08371,-0.129751 c -0.0103,-0.01685 -0.02088,-0.03391 -0.03349,-0.05232 0,-0.0014 2.12e-4,-0.0024 -0.02093,-0.02929 -0.03465,-0.04771 -0.07811,-0.09754 -0.12766,-0.146495 -0.03186,-0.0315 -0.142316,-0.261506 -0.625744,-0.332756 z" />
      </g>
    </g>
  </g>
</svg>
