<?xml version="1.0" encoding="UTF-8" standalone="no"?>
<!-- Created with Inkscape (http://www.inkscape.org/) -->

<svg
   version="1.1"
   id="svg629"
   width="260.00024"
   height="175.54593"
   viewBox="0 0 260.00024 175.54593"
   sodipodi:docname="CARDIA-PPG_LOGO_GRANDE.svg"
   inkscape:version="1.2.2 (b0a8486541, 2022-12-01)"
   xmlns:inkscape="http://www.inkscape.org/namespaces/inkscape"
   xmlns:sodipodi="http://sodipodi.sourceforge.net/DTD/sodipodi-0.dtd"
   xmlns="http://www.w3.org/2000/svg"
   xmlns:svg="http://www.w3.org/2000/svg">
  <defs
     id="defs633">
    <clipPath
       clipPathUnits="userSpaceOnUse"
       id="clipPath28">
      <path
         d="M 0,0 H 612 V 803.25 H 0 Z"
         id="path26" />
    </clipPath>
  </defs>
  <sodipodi:namedview
     id="namedview631"
     pagecolor="#ffffff"
     bordercolor="#000000"
     borderopacity="0.25"
     inkscape:showpageshadow="2"
     inkscape:pageopacity="0.0"
     inkscape:pagecheckerboard="0"
     inkscape:deskcolor="#d1d1d1"
     showgrid="false"
     inkscape:zoom="2"
     inkscape:cx="102.25"
     inkscape:cy="81"
     inkscape:window-width="1366"
     inkscape:window-height="739"
     inkscape:window-x="0"
     inkscape:window-y="0"
     inkscape:window-maximized="1"
     inkscape:current-layer="layer1" />
  <g
     inkscape:groupmode="layer"
     inkscape:label="Image"
     id="g635"
     transform="translate(51.430389,-3.3166291)">
    <g
       id="g1579"
       style="stroke:none;stroke-opacity:1"
       inkscape:groupmode="layer">
      <g
         id="g1567"
         transform="matrix(1.1295072,0,0,1.1591977,6.1665849,-4.5393203)"
         style="stroke:none;stroke-opacity:1">
        <path
           style="display:inline;fill:#fdba51;stroke:#000000;stroke-width:4;stroke-dasharray:none;stroke-opacity:1"
           d="M 61.547697,117.37672 C 40.402125,101.16685 22.955554,83.787648 13.610879,69.625 8.6314715,62.078285 6.101422,56.165303 4.6824257,48.758295 4.2128745,46.307287 4.12968,45.012915 4.1275297,40.125 4.1248775,34.09629 4.225163,33.252045 5.419345,29.25 8.24953,19.76524 16.076723,12.354269 25.89429,9.8638383 29.640535,8.9135255 33.383098,8.6054025 36.945463,8.9540018 c 9.581855,0.9376432 17.234112,5.3123832 22.49066,12.8577452 1.16199,1.667948 3.241672,5.627703 3.939432,7.500753 0.243305,0.653125 0.511465,1.18699 0.59591,1.18637 0.08444,-5e-4 0.655335,-0.984997 1.268648,-2.1875 1.93472,-3.793358 4.418287,-7.231989 7.377972,-10.215197 5.147423,-5.188332 10.46028,-7.956227 17.189575,-8.9554313 3.104123,-0.4609182 4.620695,-0.484558 7.866568,-0.1226217 13.392272,1.493327 22.863002,9.741752 25.603722,22.299272 1.34806,6.176565 0.92769,14.955623 -1.06217,22.182608 -4.09845,14.885243 -20.27307,34.681983 -45.678092,55.90717 -6.038343,5.04486 -11.97771,9.59667 -12.496965,9.57741 -0.228648,-0.008 -1.35051,-0.73202 -2.493026,-1.60786 z"
           id="path1573" />
        <path
           style="display:inline;fill:#fd9600;stroke:none;stroke-width:0.25;stroke-opacity:1"
           d="M 60.967742,116.34154 C 46.90008,105.66013 32.409292,92.25752 22.756769,81 19.647657,77.373915 15.218567,71.416157 12.973328,67.839883 6.9303725,58.214503 4.4109352,49.97893 4.4182742,39.875 4.424995,30.622317 7.1318592,23.408463 12.678196,17.862126 16.680469,13.859853 21.050428,11.455458 27,9.9821238 c 2.065957,-0.5116076 2.976817,-0.5877243 7,-0.5849613 5.111693,0.00351 7.1212,0.3315878 11.271525,1.8402165 7.739385,2.81324 14.02111,9.126475 17.4492,17.536726 0.527035,1.292992 1.10121,2.350895 1.275942,2.350895 0.174735,0 0.900361,-1.13624 1.6125,-2.52498 C 72.881168,14.418935 85.086843,7.4801985 99,9.617848 c 11.76346,1.807366 20.23225,8.933725 23.33198,19.633527 0.98701,3.407015 1.27797,5.804183 1.27429,10.498625 -0.006,8.309787 -1.60324,15.000255 -5.33929,22.372152 C 111.34601,75.77848 96.85641,91.97029 76,109.35459 70.803917,113.68564 64.557097,118.5 64.133465,118.5 c -0.17764,0 -1.602215,-0.97131 -3.165723,-2.15846 z M 19.110824,49.444372 C 19.324871,49.13878 19.5,48.644845 19.5,48.346742 c 0,-1.298767 1.369545,-5.67832 2.509534,-8.02503 1.579158,-3.250752 3.248581,-5.069105 7.735571,-8.42566 3.072792,-2.298645 3.442215,-2.660822 4.1875,-4.105395 0.653853,-1.267352 0.817395,-1.881695 0.817395,-3.07053 0,-2.581216 -0.911183,-3.874088 -3.625,-5.143493 -1.291645,-0.604174 -1.79517,-0.698933 -3.625,-0.682191 -2.38432,0.02182 -3.797503,0.480888 -6.18832,2.010275 -6.898457,4.412889 -9.582478,13.065997 -6.911613,22.282592 0.672118,2.319343 2.119801,5.644028 2.77086,6.36344 0.556062,0.61444 1.470124,0.564318 1.939897,-0.106378 z M 81.73459,33.830227 c 4.385055,-1.258257 9.207328,-4.434422 10.47563,-6.899722 2.391677,-4.648897 -1.051953,-9.606849 -6.022153,-8.670372 -4.10835,0.77409 -7.344165,4.1377 -10.452177,10.864979 -2.326605,5.035928 -0.40551,6.54275 5.9987,4.705115 z"
           id="path1571" />
        <path
           style="display:inline;fill:#f67d00;stroke:none;stroke-width:0.25;stroke-opacity:1"
           d="m 64.5,117.84551 c 0,-0.28047 1.4894,-1.88503 9.370927,-10.09551 C 82.563727,98.694395 86.233552,94.722972 90.64207,89.60055 103.51071,74.648003 111.15147,61.893087 113.46599,51.5 114.8132,45.450547 115.28424,39.38485 114.77176,34.68537 113.38616,21.979301 105.98464,13.665338 94.268445,11.654461 91.440007,11.16901 87.320405,11.15126 84.75,11.613452 c -1.03125,0.185431 -1.919048,0.294841 -1.972885,0.243131 -0.176993,-0.170003 2.25181,-1.107276 4.174023,-1.610751 4.269427,-1.1182693 9.963567,-1.1198728 14.687142,-0.0041 12.02392,2.84012 20.0533,11.900531 21.62715,24.404224 0.73152,5.811717 -0.19941,14.693379 -2.15961,20.604079 -1.29259,3.897588 -4.21575,9.590446 -7.31708,14.25 -5.31213,7.981135 -9.76493,13.236948 -19.282692,22.76006 -8.70797,8.712865 -16.26811,15.393305 -25.96831,22.946615 C 65.22633,117.7852 64.5,118.25988 64.5,117.84551 Z M 59.453867,37.5625 C 59.248373,37.321875 58.819473,36.45 58.500755,35.625 57.533902,33.1223 54.603087,27.480778 53.10492,25.238557 48.433832,18.247627 43.2424,14.051649 36.82208,12.077948 34.824062,11.463727 34.251263,11.401306 30.5,11.388988 c -4.38438,-0.0144 -6.124143,0.252778 -9.81056,1.50661 -0.975618,0.331829 -1.813114,0.564061 -1.861104,0.516072 -0.162373,-0.162373 2.785472,-1.603856 4.613246,-2.255857 6.567418,-2.3427207 14.837,-2.3409805 21.366835,0.0045 8.129045,2.919903 14.428615,9.223901 17.934528,17.947139 l 1.062147,2.642782 -1.083327,2.537085 c -1.552233,3.635228 -2.310993,4.39568 -3.267898,3.275185 z"
           id="path1569" />
      </g>
      <g
         inkscape:groupmode="layer"
         id="layer1"
         inkscape:label="Impulso">
        <path
           id="path8598"
           style="display:inline;fill:#000000;fill-opacity:1;fill-rule:nonzero;stroke:#ffffff;stroke-width:3.37077;stroke-linejoin:round;stroke-dasharray:none;stroke-opacity:1"
           d="m 54.484718,24.529923 c -0.31857,-0.04821 -0.552804,0.05193 -0.666166,0.1072 -0.06891,0.03363 -0.164231,0.09838 -0.266928,0.181039 -0.01548,0.0144 -0.09995,0.05714 -0.106775,0.06195 l -0.16712,0.126255 -0.197295,0.181044 -0.164799,0.192953 c -0.0098,0.01186 -0.04775,0.0068 -0.1207,0.131016 l -0.09053,0.09291 c -0.02526,0.02844 -0.09434,0.09722 -0.18105,0.240597 -0.345522,0.418859 -0.149143,0.293952 -0.157836,0.316825 -0.01363,0.03579 -0.01317,0.05717 -0.02321,0.08813 l -0.01161,0.01668 -0.08588,0.133398 -0.185691,0.343034 c -0.143409,0.301027 -0.248697,0.613426 -0.341203,0.964759 l -0.09053,0.333502 -0.06962,0.178659 -0.07659,0.1739 -0.106773,0.323967 -0.111414,0.409728 -0.09053,0.466898 -0.08822,0.574097 -0.02554,0.161986 -0.09053,0.500246 -0.09516,0.874244 -0.03018,0.381143 -0.01161,0.166749 -0.02554,0.235833 -0.0325,0.285855 -0.0534,0.740844 -0.0093,0.250125 -0.0093,0.116727 -0.02785,0.207242 -0.03481,0.214394 -0.0325,0.254888 -0.07196,0.709879 -0.03018,0.23821 -0.01857,0.08815 -0.03018,0.128636 -0.0116,0.05955 c -0.07184,0.257974 -0.04605,0.248337 -0.05107,0.29062 l -0.02554,0.247742 c 3.86e-4,-0.01303 -4e-6,-0.02299 -0.0023,-0.0047 l -0.02088,0.20248 -0.07659,0.657468 -0.02785,0.19057 -0.01624,0.08815 c 0.0018,-0.01 0.0057,-0.02717 -0.0046,0.0143 l -0.03946,0.1596 c -0.07612,0.325227 -0.106196,0.607145 -0.134626,0.855189 l -0.04178,0.385904 -0.02321,0.19772 -0.01393,0.08336 c -0.0039,0.01972 -0.0063,0.03988 -0.0093,0.05955 l -0.0093,0.04049 -0.03018,0.138165 -0.02088,0.104823 -0.02322,0.166746 -0.02785,0.28586 -0.01858,0.52883 -0.01625,0.216775 -0.01391,0.100052 -0.01392,0.10958 -0.01161,0.06194 -0.02785,0.145308 -0.03714,0.207246 c -0.06863,0.411112 -0.07252,0.764076 -0.08588,1.076727 l -0.02088,0.373996 -0.03713,0.60268 -0.0046,0.266796 -0.02554,0.702731 -0.02089,0.323974 -0.007,0.08337 -0.01393,0.126254 -0.01624,0.169128 -0.03018,0.276328 -0.06731,0.719408 -0.03018,0.223921 -0.07427,0.409728 -0.09516,0.681287 -0.02787,0.338266 -0.02785,0.688439 -0.01858,0.266796 -0.02088,0.364469 -0.02321,0.421637 -0.01857,0.347795 -0.04874,0.669377 -0.04874,0.890918 -0.02785,0.345411 -0.05572,0.586008 -0.02554,0.733695 -0.01857,0.319207 -0.05107,0.440695 -0.03713,0.383525 -0.0441,0.59077 -0.04179,0.43355 -0.0441,0.357321 -0.04875,0.464515 -0.04874,0.733699 -0.02554,0.314441 -0.03946,0.269179 -0.03713,0.264419 -0.06498,0.728934 -0.02554,0.331117 -0.03713,0.328736 -0.03017,0.312057 -0.03018,0.488342 -0.03946,0.60506 -0.01624,0.271564 -0.01625,0.216773 c -0.0025,0.02155 -0.0049,0.04246 -0.007,0.06433 l -0.03481,0.493101 -0.04874,0.681289 -0.02088,0.21678 -0.03713,0.488335 -0.02089,0.385906 -0.03481,0.53598 -0.02321,0.321591 -0.02088,0.259653 -0.02554,0.302531 -0.03018,0.502629 -0.03482,0.483575 -0.02554,0.304913 -0.0441,0.4931 -0.065,0.733702 -0.03018,0.428785 -0.05571,0.54789 -0.08124,0.714641 -0.03481,0.397819 -0.02322,0.259649 -0.05107,0.354938 -0.0534,0.586008 -0.0534,0.674145 -0.02785,0.328736 -0.02554,0.266794 -0.03248,0.454991 -0.03713,0.46928 -0.02321,0.314442 -0.01857,0.192952 -0.02321,0.326352 -0.04642,0.497868 -0.05804,0.755136 -0.01857,0.290622 -0.02322,0.214401 -0.03481,0.400194 -0.0441,0.583625 -0.02785,0.354932 -0.05804,0.51693 -0.07892,1.017171 -0.01857,0.323971 -0.05107,0.483575 c -0.03719,0.353062 -0.04865,0.712964 -0.06035,1.045755 l -0.0116,0.333504 -0.04642,0.571709 -0.02785,0.614594 -0.01858,0.343025 -0.0093,0.135781 -0.0093,0.16437 -0.0046,0.133397 -0.007,0.161984 v 0.128635 l -0.01857,0.593155 -0.02554,0.481191 -0.02321,0.273945 -0.0093,0.06432 -0.104445,0.855192 -0.03018,0.352549 c -0.0032,0.02228 -0.007,0.04636 -0.0093,0.06908 l -0.01626,0.171517 -0.03248,0.173894 -0.03945,0.185808 -0.05571,0.28109 -0.01857,0.128642 -0.01626,0.138164 -0.02554,0.183425 -0.04177,0.34541 -0.02787,0.18104 -0.02785,0.185803 -0.007,0.07384 -0.03018,0.152447 -0.03481,0.166747 -0.03944,0.245362 -0.02322,0.135789 -0.02321,0.138164 -0.0325,0.185805 -0.02321,0.154838 c 0.0023,-0.01586 0.004,-0.04151 -0.0046,0 l -0.03945,0.228679 -0.01624,0.08337 -0.03945,0.190571 -0.0325,0.119115 -0.03481,0.09529 -0.08821,0.307286 -0.03481,0.147698 -0.02088,0.107198 -0.03946,0.200086 -0.03713,0.259654 -0.01392,0.08571 -0.02321,0.185811 -0.02088,0.140543 -0.03481,0.202486 -0.04641,0.152458 -0.02785,0.08338 -0.04177,0.111961 -0.0441,0.114338 c -0.03139,0.08168 0.02056,-0.05362 -0.02088,0.04285 l -0.07659,0.204863 -0.07892,0.223923 c -0.387668,-0.04169 -0.784246,0.146577 -1.03522,0.540737 l -0.143911,0.271565 c -0.07273,0.175142 -0.276567,0.624745 0.01161,1.26967 0.195129,0.436773 0.535624,0.624332 0.719547,0.68606 0.211658,0.07109 0.293556,0.05469 0.348169,0.05478 0.03866,0.0054 0.191719,0.02358 0.429408,-0.03093 0.155153,-0.0355 0.277614,-0.08598 0.403875,-0.147698 0.03642,-0.01085 0.124327,-0.03918 0.264609,-0.116722 l 0.05571,-0.0381 c 0.191304,-0.03255 0.216635,-0.110303 0.236757,-0.159604 0.06781,-0.04976 0.218672,-0.131076 0.355129,-0.35256 l 0.164802,-0.223923 0.167121,-0.302523 0.134623,-0.307293 0.03482,-0.102432 0.065,-0.18581 c 0.02456,-0.06769 -0.0024,-0.0045 0.01625,-0.04761 l 0.065,-0.145314 0.03944,-0.1072 0.0882,-0.24059 0.02785,-0.09052 0.08588,-0.26918 c 0.07049,-0.24285 0.09718,-0.441463 0.123022,-0.614596 l 0.02785,-0.178664 0.02088,-0.169126 0.01393,-0.100055 0.02088,-0.138168 0.02554,-0.133388 0.01857,-0.09529 0.02554,-0.09052 0.05804,-0.166746 0.06035,-0.214396 0.05804,-0.245353 c 0.01711,-0.08818 0.0018,-0.02687 0.0046,-0.03813 l 0.04874,-0.238219 0.01161,-0.06197 0.01391,-0.0953 0.0325,-0.159597 0.01625,-0.10244 0.0325,-0.190571 0.02321,-0.135781 0.0325,-0.195338 0.01857,-0.119097 0.03018,-0.140547 0.03481,-0.181047 0.0325,-0.214396 0.007,-0.05477 0.01857,-0.133398 0.03018,-0.202488 0.05107,-0.383522 0.03018,-0.23583 0.01161,-0.10958 0.03018,-0.138165 0.04177,-0.2001 0.07427,-0.424023 0.01625,-0.166748 c 0.0052,-0.03283 0.01086,-0.06634 0.01392,-0.100057 l 0.03481,-0.414486 0.08357,-0.690821 0.02787,-0.188193 0.03248,-0.388279 0.0325,-0.6146 0.01857,-0.721782 0.0046,-0.121488 0.0023,-0.09053 0.0093,-0.133395 0.0093,-0.161988 0.01857,-0.362086 0.03018,-0.600294 0.04641,-0.583624 0.01392,-0.395433 0.0441,-0.819463 0.06266,-0.609823 0.01857,-0.350173 0.06035,-0.812309 0.07195,-0.640792 0.03017,-0.383525 0.03946,-0.543134 0.03018,-0.328733 0.03248,-0.32635 0.01858,-0.29539 0.0534,-0.709875 0.04875,-0.507395 0.02321,-0.314441 0.01857,-0.226306 0.02322,-0.302531 0.03945,-0.488336 0.03018,-0.416875 0.02321,-0.264419 0.02785,-0.3335 0.05804,-0.71464 0.0325,-0.395434 0.06036,-0.426402 0.03018,-0.326352 0.0325,-0.378761 0.06962,-0.597915 0.07427,-0.752753 0.02787,-0.38829 0.06267,-0.70988 0.0441,-0.488336 0.02785,-0.335883 0.03945,-0.54074 0.02785,-0.469283 0.02088,-0.259651 0.02554,-0.290622 0.02321,-0.333501 0.03944,-0.597918 0.01857,-0.354937 0.02785,-0.371615 0.02554,-0.269179 0.0534,-0.719405 0.02785,-0.424021 c 0.0018,-0.0174 0.0032,-0.03476 0.0046,-0.0524 l 0.02554,-0.333498 0.01392,-0.235833 0.04178,-0.650325 0.02554,-0.416871 0.01857,-0.195337 0.04641,-0.412108 0.03018,-0.364468 0.04641,-0.581241 0.02785,-0.188191 0.05571,-0.404961 0.03945,-0.426402 0.0441,-0.697966 0.03713,-0.340647 0.04875,-0.395434 0.05107,-0.533598 0.04178,-0.571715 0.02554,-0.266796 0.06267,-0.574093 0.02785,-0.443079 0.02088,-0.667001 0.04643,-0.47166 0.03713,-0.459754 0.0441,-0.831367 0.05571,-0.764664 0.01857,-0.335885 0.02321,-0.426401 0.01857,-0.331118 0.01858,-0.295382 0.02785,-0.659851 0.01857,-0.223924 0.05571,-0.41211 0.09285,-0.507393 0.0441,-0.335882 0.07427,-0.781341 0.03481,-0.309677 0.0046,-0.07385 0.02088,-0.181043 0.01161,-0.147692 0.02785,-0.419253 0.02785,-0.805165 0.0046,-0.219157 0.03018,-0.500248 0.02554,-0.445458 0.0441,-0.686055 0.03713,-0.190575 c 0.0074,-0.04278 0.0043,-0.03523 0,-0.01906 l 0.02785,-0.13578 0.01858,-0.10958 0.02321,-0.159605 0.02554,-0.204865 0.03018,-0.390667 0.01624,-0.497867 0.01161,-0.100053 0.0093,-0.04765 0.0093,-0.03812 0.0441,-0.200097 c 0.0094,-0.04948 0.01618,-0.09844 0.02088,-0.147692 l 0.01626,-0.100053 0.0325,-0.278711 0.04178,-0.373996 0.07196,-0.493101 0.02785,-0.116724 0.04641,-0.204862 0.02554,-0.142931 0.04642,-0.316824 0.08357,-0.712257 0.01392,-0.150074 0.01857,-0.169134 0.007,-0.06432 0.0093,-0.03812 c 0.01052,-0.05518 -0.0039,0.01198 0.0046,-0.0262 l 0.03018,-0.128632 0.0441,-0.219156 0.065,-0.48119 0.06731,-0.676528 0.01392,-0.121489 0.03017,-0.181043 0.05572,-0.402583 0.02088,-0.300148 0.0093,-0.235832 0.03945,-0.562183 0.03248,-0.273946 0.0325,-0.316824 0.01392,-0.197719 0.02785,-0.359704 0.06963,-0.647942 0.07196,-0.393049 0.04642,-0.278713 0.07427,-0.495484 0.05571,-0.295382 0.06731,-0.24298 c 0.01185,-0.04087 0.0061,-0.03132 0.0046,-0.02858 l 0.065,-0.142926 0.164799,-0.440695 0.132308,-0.471666 0.146229,-0.438311 0.03946,-0.07624 0.02554,-0.0405 0.007,0.0095 c 0.0013,0.0036 0.0023,0.0069 0.01391,0.03334 l 0.118379,0.35732 0.104444,0.316824 0.120701,0.27871 0.10909,0.197721 0.01624,0.03573 0.01393,0.04765 0.07427,0.297767 0.05107,0.19057 0.05804,0.216774 0.02321,0.07624 c 0.02363,0.07768 0.02487,0.118055 0.116053,0.312059 l 0.06731,0.145314 0.0441,0.240593 0.09053,0.397817 0.03945,0.152456 0.0882,0.273946 v 0.0023 c 0.03438,0.103467 0.03621,0.170527 0.136947,0.326352 l 0.08588,0.204864 0.143908,0.371614 0.1207,0.326356 0.125343,0.276329 0.139264,0.235825 0.06266,0.08815 0.07427,0.214391 0.194977,0.538364 0.1648,0.352559 0.181046,0.283472 0.143911,0.331117 0.285497,0.531215 0.181049,0.257274 c 0.01982,0.02724 -0.01246,-0.01484 0.03248,0.05241 l 0.120699,0.166748 0.03481,0.05004 c 0.01099,0.01573 -4.17e-4,-0.0042 0.0046,0.0047 l 0.132306,0.276327 0.102126,0.262036 0.09749,0.209625 0.09516,0.171515 0.07659,0.121489 c 0.05416,0.08228 0.0976,0.143094 0.17176,0.223922 l 0.04875,0.06671 0.129981,0.316823 0.204259,0.464516 0.07195,0.142931 0.09749,0.17866 0.109092,0.171511 0.03018,0.04526 0.04874,0.06908 0.04642,0.07624 0.222827,0.490718 0.192655,0.362088 c 0.160636,0.274555 0.264226,0.38611 0.266931,0.390666 l 0.06962,0.178662 0.09053,0.25489 0.09516,0.259652 0.162481,0.362082 0.04178,0.07861 0.106774,0.17151 -0.0023,0.0023 0.18337,0.44546 0.157836,0.373992 0.07892,0.178661 0.08124,0.181043 0.118378,0.352559 0.0882,0.312058 0.111417,0.331119 0.181045,0.388288 0.03713,0.07861 0.194973,0.55504 0.09285,0.235827 0.111412,0.266801 0.09053,0.188188 0.136945,0.412108 0.102127,0.304916 0.07659,0.231067 0.118374,0.281092 0.05107,0.100053 0.02321,0.05717 0.03945,0.08575 c 0.03634,0.07856 0.0019,0.04264 0.07195,0.293004 l 0.201937,0.600298 0.192653,0.414493 0.09284,0.312061 0.07427,0.31206 0.05571,0.207246 0.06963,0.204863 0.03481,0.09291 0.04179,0.104823 0.06731,0.250121 0.0441,0.212012 0.05571,0.271562 0.0534,0.192953 0.03714,0.126253 0.03248,0.09052 0.106773,0.238215 c 0.0245,0.04717 -0.0155,-0.028 0.01161,0.02858 l 0.02088,0.0405 0.157837,0.443076 0.148555,0.347796 0.05804,0.133396 0.09981,0.207246 0.01624,0.03334 0.03945,0.07861 0.08124,0.147692 0.01624,0.04526 0.06036,0.185804 0.02321,0.06908 0.04642,0.126255 0.0766,0.221537 0.155513,0.36923 0.08588,0.157224 0.06267,0.109579 0.04641,0.07385 c 0.102735,0.240846 0.118822,0.185362 0.155514,0.238216 0.01352,0.0195 0.02548,0.03877 0.03946,0.05717 l 0.03018,0.04526 0.03713,0.05479 0.134627,0.21439 0.05107,0.07861 0.06498,0.09766 0.07659,0.116726 c 0.03361,0.04816 -0.02129,-0.03194 0.01392,0.02382 l 0.01624,0.03098 0.174083,0.25727 0.162478,0.185807 c 0.103125,0.10374 0.21038,0.176048 0.264608,0.209626 l 0.06962,0.05004 0.222828,0.131015 0.246039,0.09528 c 0.22703,0.0688 0.395296,0.07643 0.545464,0.081 h 0.178728 c 0.01959,-2.28e-4 0.0227,0.02101 0.239074,-0.0071 l 0.213543,-0.05003 c 0.07552,-0.0255 0.201583,-0.06535 0.341209,-0.176279 l 0.113734,-0.0381 0.09284,-0.04049 0.065,-0.03336 c 0.120389,-0.05741 0.227,-0.134186 0.320314,-0.228682 l 0.0441,-0.04049 0.09284,-0.100054 c -0.01189,0.01367 -0.01777,0.02378 -0.0046,0.0095 0.02634,-0.02856 0.04105,-0.04608 0.04875,-0.0548 0.02222,-0.02478 0.042,-0.0492 0.06268,-0.07624 l 0.02554,-0.02858 0.08123,-0.114345 0.06036,-0.08575 c 0.01216,-0.01863 -0.009,0.01505 0.0046,-0.0047 l 0.06267,-0.09528 0.03713,-0.06195 0.0325,-0.0548 0.06962,-0.100041 c 0.03322,-0.05161 -0.0013,-0.0046 0.007,-0.01668 l 0.03945,-0.0548 c 0.158279,-0.105015 0.156704,-0.157169 0.174086,-0.197719 0.0167,-0.02383 0.03754,-0.05293 0.06731,-0.100041 l 0.04874,-0.07145 0.07196,-0.126253 0.03482,-0.06432 0.06266,-0.114342 0.08589,-0.159608 0.09053,-0.133398 0.06731,-0.081 0.03481,-0.04765 0.06266,-0.07861 0.01857,-0.02382 0.07427,-0.10719 0.04642,-0.081 0.07659,-0.138164 0.08124,-0.17866 c -0.0024,0.0059 -3.12e-4,0.0047 0.02088,-0.04287 l 0.02785,-0.06668 0.02322,-0.05003 0.03944,-0.081 c 0.0078,-0.01518 -0.0046,-0.0042 -0.007,-0.0023 l 0.06498,-0.06432 0.0534,-0.05955 0.102127,-0.12149 c 0.01564,-0.02009 0.0049,-0.0068 0.007,-0.0095 l 0.160156,-0.23345 0.01626,-0.03098 0.09284,-0.171511 0.08821,-0.178661 0.0882,-0.190575 c 0.03654,-0.0786 -0.0061,-0.01485 0.02322,-0.05715 l 0.176406,-0.214395 c 0.150441,-0.194277 0.262632,-0.385878 0.357452,-0.58362 0.0085,-0.01763 0.0089,-0.02077 0.02088,-0.04287 l 0.02785,-0.03574 0.02554,-0.03335 0.03713,-0.05003 c 0.0185,-0.0251 0.0096,-0.01214 0.0093,-0.01191 l 0.06035,-0.07624 0.136944,-0.181045 0.07196,-0.104811 0.02785,-0.04049 0.03248,-0.04765 0.04178,-0.0524 0.07892,-0.09053 0.07893,-0.09291 c 0.0258,-0.01785 0.04889,-0.03465 0.09053,-0.06432 l 0.04179,-0.02143 0.08356,-0.04287 0.14855,-0.07861 0.118378,-0.06908 c 0.04091,0.0288 0.07398,0.05903 0.132308,0.08815 l 0.09284,0.07385 h 0.0023 l 0.1648,0.114346 0.02321,0.03335 0.04179,0.06908 0.03248,0.05955 0.06731,0.11911 0.04178,0.08575 0.03481,0.06433 0.05571,0.09528 0.08357,0.161984 0.09981,0.164367 0.102126,0.14293 0.02554,0.03574 0.192656,0.240599 0.150871,0.183421 0.03481,0.07385 c 0.06724,0.14015 0.143241,0.319371 0.280857,0.543125 l 0.160157,0.231071 0.03018,0.04526 0.05804,0.08575 0.02321,0.0381 0.05571,0.081 0.07659,0.119112 0.08589,0.152455 0.06267,0.128633 0.208902,0.383529 0.132299,0.242976 0.116059,0.188188 0.146225,0.197718 0.06729,0.08814 0.169444,0.383523 0.111415,0.242982 0.194968,0.321586 0.123026,0.138164 c 0.04821,0.06667 0.102115,0.129263 0.162477,0.185808 0.05764,0.05395 0.113316,0.09769 0.16712,0.135782 l 0.03484,0.07145 0.15784,0.309674 0.102122,0.18581 0.178731,0.269181 0.102121,0.152456 0.129987,0.18581 0.236751,0.269179 0.129986,0.102432 c 0.02295,0.05955 0.09067,0.265342 0.264607,0.57886 0.136804,0.24663 0.28227,0.447015 0.41548,0.624116 l 0.148556,0.202482 0.08357,0.114344 0.104455,0.181043 0.09749,0.171514 0.111414,0.192949 0.24372,0.326357 0.0696,0.07145 c 0.09033,0.199837 0.13055,0.234014 0.143913,0.262035 l 0.123011,0.328734 0.167127,0.359698 0.178722,0.26442 0.04874,0.05717 0.06729,0.173893 0.188014,0.371614 0.164794,0.278712 0.0882,0.181042 0.178729,0.309679 0.150874,0.192949 0.065,0.06908 0.136946,0.281097 0.317993,0.621737 0.176404,0.357321 0.183373,0.409725 0.127661,0.326352 0.123017,0.285861 c 0.157204,0.324355 0.284284,0.459148 0.299424,0.48357 l 0.03254,0.08575 0.0627,0.226304 0.08357,0.262033 c 0.107523,0.316661 0.237978,0.529725 0.301741,0.643178 l 0.07428,0.128635 0.150875,0.457368 0.09515,0.264417 c 0.108653,0.272556 0.232674,0.445786 0.290145,0.531214 l 0.13462,0.192956 0.065,0.154838 0.0882,0.24536 0.167119,0.388289 0.234442,0.393057 0.10444,0.154834 0.171769,0.343027 c 0.0364,0.06966 0.07612,0.133859 0.120692,0.192953 l 0.123019,0.209629 0.164801,0.231067 0.290138,0.333501 0.07892,0.09529 0.0696,0.119105 0.257638,0.35256 c 0.177326,0.212277 0.315818,0.320555 0.380666,0.383523 l 0.09749,0.100053 0.143907,0.173895 c 0.228773,0.256473 0.401278,0.361 0.443336,0.397816 l 0.322635,0.338266 0.34585,0.328736 c 0.115173,0.107256 0.253238,0.260546 0.475824,0.433546 0.23094,0.179425 0.403667,0.248686 0.489753,0.295388 l 0.362093,0.221537 0.294788,0.166747 0.17641,0.164366 0.352812,0.307299 c 0.206136,0.153091 0.374677,0.22994 0.480471,0.283471 l 0.373698,0.192954 0.153192,0.09053 0.431726,0.23345 0.132304,0.081 0.222829,0.271562 c 0.123975,0.145483 0.266804,0.291585 0.429412,0.426408 l 0.30871,0.228683 0.06267,0.05237 0.08822,0.150072 c 0.14534,0.238846 0.293173,0.43735 0.42476,0.60507 l 0.27854,0.326349 c 0.111469,0.115361 0.204065,0.191878 0.25532,0.231062 l 0.227473,0.378764 0.129983,0.223922 0.123016,0.178663 0.17177,0.209623 0.143905,0.135788 0.220507,0.171509 c 0.02475,0.01664 -0.01739,-0.0107 0.02089,0.01664 l 0.07665,0.05244 0.120702,0.08575 0.183363,0.176278 0.174083,0.145302 0.164805,0.119112 c 0.0217,0.01538 -0.01363,-0.01062 0.0092,0.0074 l 0.225151,0.166748 0.420124,0.304913 0.359795,0.240592 0.271557,0.138164 0.16016,0.0572 c 0.03559,0.01166 -0.02681,-0.0066 0.02089,0.01188 l 0.03721,0.01426 0.05102,0.02146 0.201949,0.07624 c 0.257613,0.08488 0.445824,0.110977 0.550103,0.140548 l 0.280868,0.116727 0.264593,0.111958 0.232113,0.08099 0.06038,0.07624 0.0441,0.05481 c 0.02773,0.03536 -0.02311,-0.04048 0.01396,0.01426 l 0.181047,0.231069 0.146226,0.166748 0.05104,0.05481 0.03245,0.03811 c 0.07973,0.09468 0.07155,0.08166 0.07896,0.08575 l 0.12998,0.140549 0.134623,0.18104 0.299433,0.493105 0.276207,0.357318 0.25765,0.254883 0.07424,0.07384 0.15784,0.362086 0.176405,0.362088 0.194971,0.29062 0.0975,0.285851 0.21354,0.493105 0.1532,0.295382 0.0975,0.212015 0.10445,0.352557 0.0905,0.33588 0.0627,0.214393 0.10213,0.300149 0.058,0.18104 0.0813,0.390671 0.0859,0.369233 0.1323,0.416869 0.1323,0.288245 c 0.0257,0.06058 -0.009,-0.02401 0.0117,0.08103 l 0.0325,0.226295 0.0557,0.364468 0.0975,0.409725 0.10909,0.314444 0.0951,0.316828 0.0696,0.266794 0.0743,0.290627 c 0.0819,0.28904 0.1668,0.447729 0.17873,0.478813 l 0.0372,0.123859 0.0859,0.29301 0.0998,0.321585 c 0.0684,0.203625 0.14993,0.378183 0.21818,0.507403 l 0.10445,0.178665 0.058,0.109567 0.11606,0.25966 0.0626,0.16675 0.10212,0.25965 0.14855,0.281086 0.0742,0.123878 0.0836,0.131013 0.11604,0.147697 0.15087,0.14769 0.11607,0.109585 c 0.17546,0.138463 0.25662,0.179041 0.30173,0.190571 0.0497,0.04133 0.10375,0.07692 0.16016,0.109577 0.11059,0.06392 0.17631,0.297135 0.81936,0.131021 0.26234,-0.06778 0.6648,-0.358612 0.82632,-0.805166 0.20317,-0.561743 0.0588,-0.922032 -0.0117,-1.107699 -0.0827,-0.218336 -0.1538,-0.310843 -0.21586,-0.390663 -0.19725,-0.253742 -0.32658,-0.315541 -0.4735,-0.390672 l -0.0766,-0.05236 -0.0882,-0.231068 -0.21817,-0.481198 -0.16016,-0.295387 c -0.0357,-0.05926 -0.01,-0.01058 -0.0255,-0.04044 l -0.0278,-0.0667 -0.0673,-0.219157 -0.0951,-0.319211 -0.10677,-0.323969 -0.0905,-0.214387 -0.0558,-0.221537 -0.0836,-0.314444 -0.16479,-0.545515 -0.0533,-0.142922 -0.0163,-0.06673 -0.0372,-0.245362 -0.0627,-0.40495 c -0.0366,-0.186221 -0.0819,-0.411651 -0.19963,-0.688448 l -0.0928,-0.19057 -0.0255,-0.08814 -0.0533,-0.231067 -0.12069,-0.547889 -0.11837,-0.383532 -0.072,-0.212007 -0.0441,-0.154834 -0.0836,-0.300149 -0.17874,-0.595533 c -0.0804,-0.221123 -0.17351,-0.410036 -0.25532,-0.566956 l -0.11837,-0.2263 -0.0905,-0.2001 c -0.0435,-0.120553 -0.0697,-0.355796 -0.3087,-0.757512 -0.16143,-0.271374 -0.14366,-0.190667 -0.18105,-0.257276 l -0.0464,-0.09767 c -0.0554,-0.128032 -0.14187,-0.386184 -0.33657,-0.707491 -0.0833,-0.137412 -0.18572,-0.288836 -0.32728,-0.440691 l -0.20193,-0.195339 -0.0975,-0.09051 -0.0418,-0.05237 c -0.0557,-0.08403 -0.14308,-0.267148 -0.31801,-0.524067 -0.10012,-0.147033 -0.2494,-0.365622 -0.466541,-0.576486 l -0.03717,-0.04285 -0.05797,-0.0667 -0.06722,-0.07384 -0.02793,-0.03098 -0.07896,-0.08815 c -0.02899,-0.03446 -0.02629,-0.02926 -0.01859,-0.01664 l -0.120698,-0.161993 -0.05104,-0.06195 -0.08358,-0.100056 c -0.03351,-0.04822 -0.06904,-0.09455 -0.109084,-0.138164 L 99.103335,78.13303 c -0.160536,-0.136641 -0.347023,-0.253516 -0.550112,-0.338264 l -0.324952,-0.119104 -0.155519,-0.06671 c -0.144367,-0.06508 -0.329112,-0.151905 -0.566347,-0.219154 l -0.468876,-0.114341 -0.04189,-0.01671 -0.08821,-0.0381 -0.05104,-0.02146 -0.148566,-0.0572 -0.211197,-0.145311 -0.362118,-0.259652 -0.190338,-0.142933 -0.09285,-0.06908 -0.106761,-0.07624 -0.239075,-0.226307 -0.366735,-0.27156 -0.02779,-0.01902 -0.06957,-0.123872 -0.290133,-0.483575 -0.05102,-0.07861 -0.229786,-0.29539 -0.174083,-0.164367 -0.120694,-0.09529 -0.106779,-0.128635 -0.241397,-0.34303 c -0.05029,-0.08255 -0.135281,-0.255519 -0.324956,-0.48119 -0.166435,-0.19797 -0.343593,-0.34695 -0.503682,-0.462132 L 92.81567,73.14483 92.688002,73.016196 c -0.07531,-0.08825 -0.239847,-0.353543 -0.582598,-0.619355 -0.162034,-0.125616 -0.300462,-0.200115 -0.410845,-0.262036 l -0.403651,-0.21913 -0.199617,-0.116726 -0.438692,-0.226301 -0.157829,-0.08338 -0.104466,-0.09529 C 90.257758,71.26372 90.069497,71.065717 89.777543,70.891349 l -0.278538,-0.157222 -0.457253,-0.276326 -0.18337,-0.09528 -0.313352,-0.295387 -0.26461,-0.250125 c -0.107728,-0.10999 -0.237762,-0.27271 -0.459576,-0.466897 l -0.225152,-0.183428 -0.16712,-0.195331 -0.199614,-0.207246 -0.201937,-0.190572 -0.04412,-0.05717 -0.134629,-0.216778 -0.313351,-0.390667 -0.143906,-0.161984 -0.03944,-0.0524 -0.104454,-0.178659 c -0.01567,-0.03002 -0.0315,-0.06006 -0.04873,-0.08813 -0.04427,-0.09468 -0.10976,-0.228747 -0.213547,-0.400198 l -0.183365,-0.281094 -0.03484,-0.05004 -0.04873,-0.109579 -0.116058,-0.319207 C 85.538531,66.109357 85.458171,65.9067 85.311755,65.669773 L 85.102852,65.36486 85.070402,65.2672 c -0.05103,-0.148944 -0.111356,-0.425194 -0.290146,-0.793249 l -0.153191,-0.281096 -0.08123,-0.147691 -0.04181,-0.128638 -0.116059,-0.397814 c -0.07421,-0.209085 -0.166228,-0.424155 -0.301875,-0.643175 l -0.157844,-0.226307 -0.04412,-0.1072 -0.13927,-0.359704 -0.25068,-0.555035 -0.194966,-0.395437 -0.304073,-0.593153 c -0.07924,-0.162202 -0.160263,-0.383642 -0.373697,-0.683671 -0.02274,-0.03194 -0.07779,-0.119153 -0.18569,-0.228684 l -0.141589,-0.278713 -0.160159,-0.266802 -0.04642,-0.08575 -0.03714,-0.09766 c -0.01754,-0.0468 -0.05013,-0.161709 -0.155517,-0.354939 l -0.19961,-0.300154 -0.05103,-0.05955 c -0.0364,-0.100509 -0.0891,-0.266405 -0.194967,-0.48834 -0.1151,-0.241346 -0.09299,-0.144739 -0.129986,-0.233449 l -0.139264,-0.273945 -0.05341,-0.08576 -0.171762,-0.228684 -0.129986,-0.142929 -0.03944,-0.0667 -0.09053,-0.164367 -0.22979,-0.383523 -0.125344,-0.173894 -0.181046,-0.24298 -0.206579,-0.307293 c -0.0044,-0.0085 -0.0764,-0.234644 -0.271574,-0.588393 -0.157277,-0.285176 -0.365504,-0.537442 -0.612773,-0.747987 l -0.129986,-0.190571 -0.06729,-0.09766 -0.04181,-0.07861 -0.113733,-0.221533 c -0.07861,-0.160061 -0.18396,-0.464316 -0.529221,-0.798016 -0.03128,-0.03017 -0.09925,-0.102648 -0.211221,-0.183427 -0.06693,-0.154866 -0.145584,-0.358768 -0.276217,-0.600295 l -0.141581,-0.23345 -0.150874,-0.207246 -0.04874,-0.06195 -0.02318,-0.0381 -0.113739,-0.204862 -0.141582,-0.257275 -0.08822,-0.181039 -0.190333,-0.333499 -0.155516,-0.240599 c -0.01835,-0.02657 -0.0086,-0.01338 -0.0092,-0.01428 l -0.04175,-0.06194 -0.05571,-0.08575 -0.08588,-0.126254 -0.05342,-0.06908 -0.139271,-0.285857 c -0.04606,-0.09596 -0.111178,-0.240934 -0.232108,-0.421635 -0.149166,-0.222847 -0.282391,-0.361878 -0.320318,-0.407348 l -0.113733,-0.142927 -0.03254,-0.04287 c -0.02436,-0.04834 -0.0052,-0.04209 -0.125337,-0.235832 l -0.07195,-0.13578 -0.04875,-0.08576 c -0.03902,-0.07332 0.02038,0.04516 -0.01161,-0.02143 l -0.10445,-0.190573 c -0.01193,-0.01895 -0.0113,-0.01494 -0.007,-0.0071 l -0.06963,-0.116722 -0.116055,-0.166751 -0.04641,-0.05955 -0.0441,-0.05241 c -0.03044,-0.04365 -0.09306,-0.129431 -0.183367,-0.216774 l -0.106773,-0.09766 -0.218186,-0.152458 -0.0534,-0.03335 -0.02554,-0.02144 -0.06035,-0.04765 -0.04642,-0.03574 C 73.95437,46.677973 74.02032,46.730406 74.065819,46.77237 c -0.0275,-0.02127 -0.06557,-0.04905 -0.113732,-0.08336 l -0.03018,-0.01668 -0.0023,-0.0023 c -0.05081,-0.06441 -0.104523,-0.121726 -0.164776,-0.166745 -0.325533,-0.24325 -0.526289,-0.226383 -0.645273,-0.22154 l -0.03481,-0.0095 c -0.115245,-0.01496 -0.345255,-0.103115 -0.652237,0.09528 l -0.04178,0.0119 -0.213544,0.08815 -0.155515,0.08813 c -0.02653,0.01691 0.02126,-0.0129 -0.01161,0.0071 l -0.08356,0.05241 -0.08589,0.05717 -0.109092,0.06432 -0.07427,0.03574 -0.06498,0.03335 -0.0534,0.02858 -0.185688,0.109579 -0.0534,0.03098 c -0.120469,0.05855 -0.118186,0.08041 -0.141593,0.09766 l -0.07195,0.05955 -0.06498,0.05003 c -0.150284,0.124159 -0.125302,0.118491 -0.174086,0.173896 l -0.07195,0.07385 -0.09516,0.111958 -0.123017,0.142924 -0.06963,0.08815 -0.07892,0.102431 -0.111413,0.166751 -0.06035,0.08337 -0.07659,0.09291 -0.06036,0.08337 -0.09749,0.126255 c -0.01109,0.01604 0.02458,-0.04648 -0.05804,0.081 l -0.04409,0.06668 -0.08124,0.138164 v 0.0023 l -0.104443,0.200102 -0.05107,0.08575 -0.257645,0.323973 c -0.129274,0.18617 -0.203775,0.345661 -0.264608,0.476425 l -0.08124,0.183427 -0.05107,0.102431 -0.0325,0.03098 c -0.0245,0.02325 -0.04822,0.04967 -0.08124,0.08575 -0.01456,0.01649 -0.02811,0.0329 -0.04178,0.05003 -0.152562,0.183253 -0.248295,0.350992 -0.329598,0.509778 l -0.104445,0.219157 -0.02785,0.06433 -0.03944,0.08814 -0.01392,0.03335 c -0.07535,0.08671 -0.04377,0.05273 -0.04875,0.06194 l -0.08356,0.102433 -0.111414,0.159602 -0.03713,0.0548 -0.065,0.104812 c 0.0012,-0.0018 -0.01175,0.01577 -0.02322,0.03574 l -0.065,0.102431 -0.04874,0.09291 -0.02088,0.04048 c -0.08513,0.130674 -0.08861,0.154253 -0.09981,0.181043 l -0.08356,0.09529 -0.03713,0.04526 -0.08588,0.114338 -0.05804,0.081 -0.05571,0.08815 -0.02088,0.03098 -0.03018,0.04287 -0.08124,0.133399 c 0.009,-0.017 0.01432,-0.02749 -0.007,0.0071 -0.03996,0.0084 -0.07761,0.02521 -0.116057,0.03812 l -0.007,-0.01191 -0.04179,-0.06669 -0.06267,-0.09291 -0.04179,-0.06432 c -0.0513,-0.07845 -0.01772,-0.01747 -0.03713,-0.05241 l -0.113628,-0.186163 c -0.01294,-0.01873 -0.0092,-0.01467 -0.0046,-0.0071 l -0.02785,-0.04287 c -0.01946,-0.03381 -0.0493,-0.08325 -0.09284,-0.14293 -0.0244,-0.03844 -0.05572,-0.08423 -0.104455,-0.150073 l -0.0441,-0.081 -0.03017,-0.07385 -0.07892,-0.223922 -0.01857,-0.05004 -0.01857,-0.0548 -0.03713,-0.116721 -0.07893,-0.23107 c -0.02391,-0.06314 0.0075,0.02644 -0.0093,-0.02144 l -0.123017,-0.283473 -0.08357,-0.142929 -0.04642,-0.09051 -0.03248,-0.06433 c 0.0054,0.0088 0.0054,0.01105 -0.0093,-0.02143 l -0.06036,-0.142931 -0.08588,-0.197713 -0.150872,-0.424025 -0.04642,-0.116722 -0.07427,-0.15484 -0.02322,-0.05717 -0.03481,-0.171509 -0.06731,-0.323974 -0.146229,-0.521689 -0.03018,-0.09051 -0.05804,-0.142929 -0.02785,-0.07624 -0.01626,-0.0548 -0.07427,-0.314443 c -0.06222,-0.251142 -0.132317,-0.518611 -0.262287,-0.812309 l -0.155514,-0.323972 -0.09054,-0.28109 c -0.03321,-0.118963 -0.06681,-0.370961 -0.241395,-0.747993 -0.01832,-0.03954 0.0051,0.01156 -0.0093,-0.02143 l -0.104455,-0.221538 c -0.0073,-0.01422 -0.0074,-0.01282 -0.01857,-0.03574 l -0.05572,-0.171511 -0.07659,-0.233449 -0.167121,-0.505017 -0.111413,-0.273944 -0.03248,-0.07145 -0.05107,-0.100053 -0.065,-0.154841 -0.05804,-0.14769 -0.239074,-0.669384 -0.153197,-0.323966 c -0.03044,-0.05759 -0.02824,-0.05203 -0.03018,-0.05717 l -0.04178,-0.121489 -0.08821,-0.307296 -0.215866,-0.638411 -0.125336,-0.281094 -0.06266,-0.138164 -0.120701,-0.29062 c -0.08332,-0.209317 -0.166074,-0.462795 -0.334238,-0.769431 l -0.116057,-0.192954 -0.03018,-0.06432 -0.06731,-0.192954 -0.109092,-0.297764 c -0.07685,-0.205351 -0.159188,-0.435279 -0.32728,-0.70273 l -0.222828,-0.314442 -0.065,-0.123873 c -0.07744,-0.166758 -0.163526,-0.406918 -0.334243,-0.707496 -0.02529,-0.04457 -0.05245,-0.08634 -0.08123,-0.126254 l -0.106774,-0.166749 -0.03018,-0.04765 -0.0534,-0.08338 -0.05107,-0.102431 -0.09286,-0.207247 c -0.0771,-0.203054 -0.164437,-0.457184 -0.338824,-0.755119 l -0.236756,-0.34541 c -0.0071,-0.0093 -0.02625,-0.04629 -0.0882,-0.116722 l -0.06945,-0.185783 c -0.08759,-0.223121 -0.188645,-0.433693 -0.297101,-0.628883 l -0.150878,-0.238215 -0.04177,-0.05955 -0.08588,-0.116727 -0.09517,-0.140547 -0.08357,-0.114339 -0.09516,-0.181043 c -0.07343,-0.162204 -0.139958,-0.385634 -0.355131,-0.714642 -0.08146,-0.124523 -0.03715,-0.03849 -0.06963,-0.09766 l -0.01858,-0.04764 -0.146229,-0.402578 c -0.07111,-0.202527 -0.151939,-0.482877 -0.359773,-0.809926 l -0.08589,-0.12387 -0.09285,-0.257276 -0.181045,-0.464514 -0.116058,-0.276329 c -0.01448,-0.03431 0.0154,-0.06052 -0.08589,-0.22154 l -0.01624,-0.05955 -0.0441,-0.188192 c -0.0333,-0.181658 -0.04043,-0.421869 -0.2089,-0.826601 l -0.116058,-0.262036 -0.03946,-0.152457 -0.03481,-0.126249 -0.09749,-0.383524 -0.06963,-0.226304 -0.06267,-0.169133 -0.02554,-0.05955 -0.09284,-0.197717 -0.05804,-0.107191 c -0.03751,-0.06607 -0.0134,-0.0152 -0.03018,-0.04765 l -0.05107,-0.159601 -0.169443,-0.51216 -0.065,-0.1596 -0.09516,-0.207246 -0.05571,-0.102433 -0.09053,-0.145308 -0.07892,-0.10958 -0.04875,-0.06433 c -0.0011,-0.008 -0.0011,-0.01362 -0.05572,-0.126249 l -0.03018,-0.06194 -0.04178,-0.08337 -0.01857,-0.03811 -0.02785,-0.06195 -0.116058,-0.262036 -0.102126,-0.176277 -0.09284,-0.147691 c -0.01142,-0.01918 -0.02316,-0.03859 -0.03714,-0.05955 0,-0.0015 2.35e-4,-0.0028 -0.02321,-0.03335 -0.03843,-0.0543 -0.08664,-0.111026 -0.141588,-0.166749 -0.03533,-0.03585 -0.157843,-0.297661 -0.694016,-0.378763 z" />
        <path
           id="path8600"
           style="display:inline;fill:#000000;fill-opacity:1;fill-rule:nonzero;stroke:none;stroke-width:3.37077;stroke-linejoin:round;stroke-dasharray:none;stroke-opacity:1"
           d="m 54.484718,24.529923 c -0.31857,-0.04821 -0.552804,0.05193 -0.666166,0.1072 -0.06891,0.03363 -0.164231,0.09838 -0.266928,0.181039 -0.01548,0.0144 -0.09995,0.05714 -0.106775,0.06195 l -0.16712,0.126255 -0.197295,0.181044 -0.164799,0.192953 c -0.0098,0.01186 -0.04775,0.0068 -0.1207,0.131016 l -0.09053,0.09291 c -0.02526,0.02844 -0.09434,0.09722 -0.18105,0.240597 -0.345522,0.418859 -0.149143,0.293952 -0.157836,0.316825 -0.01363,0.03579 -0.01317,0.05717 -0.02321,0.08813 l -0.01161,0.01668 -0.08588,0.133398 -0.185691,0.343034 c -0.143409,0.301027 -0.248697,0.613426 -0.341203,0.964759 l -0.09053,0.333502 -0.06962,0.178659 -0.07659,0.1739 -0.106773,0.323967 -0.111414,0.409728 -0.09053,0.466898 -0.08822,0.574097 -0.02554,0.161986 -0.09053,0.500246 -0.09516,0.874244 -0.03018,0.381143 -0.01161,0.166749 -0.02554,0.235833 -0.0325,0.285855 -0.0534,0.740844 -0.0093,0.250125 -0.0093,0.116727 -0.02785,0.207242 -0.03481,0.214394 -0.0325,0.254888 -0.07196,0.709879 -0.03018,0.23821 -0.01857,0.08815 -0.03018,0.128636 -0.0116,0.05955 c -0.07184,0.257974 -0.04605,0.248337 -0.05107,0.29062 l -0.02554,0.247742 c 3.86e-4,-0.01303 -4e-6,-0.02299 -0.0023,-0.0047 l -0.02088,0.20248 -0.07659,0.657468 -0.02785,0.19057 -0.01624,0.08815 c 0.0018,-0.01 0.0057,-0.02717 -0.0046,0.0143 l -0.03946,0.1596 c -0.07612,0.325227 -0.106196,0.607145 -0.134626,0.855189 l -0.04178,0.385904 -0.02321,0.19772 -0.01393,0.08336 c -0.0039,0.01972 -0.0063,0.03988 -0.0093,0.05955 l -0.0093,0.04049 -0.03018,0.138165 -0.02088,0.104823 -0.02322,0.166746 -0.02785,0.28586 -0.01858,0.52883 -0.01625,0.216775 -0.01391,0.100052 -0.01392,0.10958 -0.01161,0.06194 -0.02785,0.145308 -0.03714,0.207246 c -0.06863,0.411112 -0.07252,0.764076 -0.08588,1.076727 l -0.02088,0.373996 -0.03713,0.60268 -0.0046,0.266796 -0.02554,0.702731 -0.02089,0.323974 -0.007,0.08337 -0.01393,0.126254 -0.01624,0.169128 -0.03018,0.276328 -0.06731,0.719408 -0.03018,0.223921 -0.07427,0.409728 -0.09516,0.681287 -0.02787,0.338266 -0.02785,0.688439 -0.01858,0.266796 -0.02088,0.364469 -0.02321,0.421637 -0.01857,0.347795 -0.04874,0.669377 -0.04874,0.890918 -0.02785,0.345411 -0.05572,0.586008 -0.02554,0.733695 -0.01857,0.319207 -0.05107,0.440695 -0.03713,0.383525 -0.0441,0.59077 -0.04179,0.43355 -0.0441,0.357321 -0.04875,0.464515 -0.04874,0.733699 -0.02554,0.314441 -0.03946,0.269179 -0.03713,0.264419 -0.06498,0.728934 -0.02554,0.331117 -0.03713,0.328736 -0.03017,0.312057 -0.03018,0.488342 -0.03946,0.60506 -0.01624,0.271564 -0.01625,0.216773 c -0.0025,0.02155 -0.0049,0.04246 -0.007,0.06433 l -0.03481,0.493101 -0.04874,0.681289 -0.02088,0.21678 -0.03713,0.488335 -0.02089,0.385906 -0.03481,0.53598 -0.02321,0.321591 -0.02088,0.259653 -0.02554,0.302531 -0.03018,0.502629 -0.03482,0.483575 -0.02554,0.304913 -0.0441,0.4931 -0.065,0.733702 -0.03018,0.428785 -0.05571,0.54789 -0.08124,0.714641 -0.03481,0.397819 -0.02322,0.259649 -0.05107,0.354938 -0.0534,0.586008 -0.0534,0.674145 -0.02785,0.328736 -0.02554,0.266794 -0.03248,0.454991 -0.03713,0.46928 -0.02321,0.314442 -0.01857,0.192952 -0.02321,0.326352 -0.04642,0.497868 -0.05804,0.755136 -0.01857,0.290622 -0.02322,0.214401 -0.03481,0.400194 -0.0441,0.583625 -0.02785,0.354932 -0.05804,0.51693 -0.07892,1.017171 -0.01857,0.323971 -0.05107,0.483575 c -0.03719,0.353062 -0.04865,0.712964 -0.06035,1.045755 l -0.0116,0.333504 -0.04642,0.571709 -0.02785,0.614594 -0.01858,0.343025 -0.0093,0.135781 -0.0093,0.16437 -0.0046,0.133397 -0.007,0.161984 v 0.128635 l -0.01857,0.593155 -0.02554,0.481191 -0.02321,0.273945 -0.0093,0.06432 -0.104445,0.855192 -0.03018,0.352549 c -0.0032,0.02228 -0.007,0.04636 -0.0093,0.06908 l -0.01626,0.171517 -0.03248,0.173894 -0.03945,0.185808 -0.05571,0.28109 -0.01857,0.128642 -0.01626,0.138164 -0.02554,0.183425 -0.04177,0.34541 -0.02787,0.18104 -0.02785,0.185803 -0.007,0.07384 -0.03018,0.152447 -0.03481,0.166747 -0.03944,0.245362 -0.02322,0.135789 -0.02321,0.138164 -0.0325,0.185805 -0.02321,0.154838 c 0.0023,-0.01586 0.004,-0.04151 -0.0046,0 l -0.03945,0.228679 -0.01624,0.08337 -0.03945,0.190571 -0.0325,0.119115 -0.03481,0.09529 -0.08821,0.307286 -0.03481,0.147698 -0.02088,0.107198 -0.03946,0.200086 -0.03713,0.259654 -0.01392,0.08571 -0.02321,0.185811 -0.02088,0.140543 -0.03481,0.202486 -0.04641,0.152458 -0.02785,0.08338 -0.04177,0.111961 -0.0441,0.114338 c -0.03139,0.08168 0.02056,-0.05362 -0.02088,0.04285 l -0.07659,0.204863 -0.07892,0.223923 c -0.387668,-0.04169 -0.784246,0.146577 -1.03522,0.540737 l -0.143911,0.271565 c -0.07273,0.175142 -0.276567,0.624745 0.01161,1.26967 0.195129,0.436773 0.535624,0.624332 0.719547,0.68606 0.211658,0.07109 0.293556,0.05469 0.348169,0.05478 0.03866,0.0054 0.191719,0.02358 0.429408,-0.03093 0.155153,-0.0355 0.277614,-0.08598 0.403875,-0.147698 0.03642,-0.01085 0.124327,-0.03918 0.264609,-0.116722 l 0.05571,-0.0381 c 0.191304,-0.03255 0.216635,-0.110303 0.236757,-0.159604 0.06781,-0.04976 0.218672,-0.131076 0.355129,-0.35256 l 0.164802,-0.223923 0.167121,-0.302523 0.134623,-0.307293 0.03482,-0.102432 0.065,-0.18581 c 0.02456,-0.06769 -0.0024,-0.0045 0.01625,-0.04761 l 0.065,-0.145314 0.03944,-0.1072 0.0882,-0.24059 0.02785,-0.09052 0.08588,-0.26918 c 0.07049,-0.24285 0.09718,-0.441463 0.123022,-0.614596 l 0.02785,-0.178664 0.02088,-0.169126 0.01393,-0.100055 0.02088,-0.138168 0.02554,-0.133388 0.01857,-0.09529 0.02554,-0.09052 0.05804,-0.166746 0.06035,-0.214396 0.05804,-0.245353 c 0.01711,-0.08818 0.0018,-0.02687 0.0046,-0.03813 l 0.04874,-0.238219 0.01161,-0.06197 0.01391,-0.0953 0.0325,-0.159597 0.01625,-0.10244 0.0325,-0.190571 0.02321,-0.135781 0.0325,-0.195338 0.01857,-0.119097 0.03018,-0.140547 0.03481,-0.181047 0.0325,-0.214396 0.007,-0.05477 0.01857,-0.133398 0.03018,-0.202488 0.05107,-0.383522 0.03018,-0.23583 0.01161,-0.10958 0.03018,-0.138165 0.04177,-0.2001 0.07427,-0.424023 0.01625,-0.166748 c 0.0052,-0.03283 0.01086,-0.06634 0.01392,-0.100057 l 0.03481,-0.414486 0.08357,-0.690821 0.02787,-0.188193 0.03248,-0.388279 0.0325,-0.6146 0.01857,-0.721782 0.0046,-0.121488 0.0023,-0.09053 0.0093,-0.133395 0.0093,-0.161988 0.01857,-0.362086 0.03018,-0.600294 0.04641,-0.583624 0.01392,-0.395433 0.0441,-0.819463 0.06266,-0.609823 0.01857,-0.350173 0.06035,-0.812309 0.07195,-0.640792 0.03017,-0.383525 0.03946,-0.543134 0.03018,-0.328733 0.03248,-0.32635 0.01858,-0.29539 0.0534,-0.709875 0.04875,-0.507395 0.02321,-0.314441 0.01857,-0.226306 0.02322,-0.302531 0.03945,-0.488336 0.03018,-0.416875 0.02321,-0.264419 0.02785,-0.3335 0.05804,-0.71464 0.0325,-0.395434 0.06036,-0.426402 0.03018,-0.326352 0.0325,-0.378761 0.06962,-0.597915 0.07427,-0.752753 0.02787,-0.38829 0.06267,-0.70988 0.0441,-0.488336 0.02785,-0.335883 0.03945,-0.54074 0.02785,-0.469283 0.02088,-0.259651 0.02554,-0.290622 0.02321,-0.333501 0.03944,-0.597918 0.01857,-0.354937 0.02785,-0.371615 0.02554,-0.269179 0.0534,-0.719405 0.02785,-0.424021 c 0.0018,-0.0174 0.0032,-0.03476 0.0046,-0.0524 l 0.02554,-0.333498 0.01392,-0.235833 0.04178,-0.650325 0.02554,-0.416871 0.01857,-0.195337 0.04641,-0.412108 0.03018,-0.364468 0.04641,-0.581241 0.02785,-0.188191 0.05571,-0.404961 0.03945,-0.426402 0.0441,-0.697966 0.03713,-0.340647 0.04875,-0.395434 0.05107,-0.533598 0.04178,-0.571715 0.02554,-0.266796 0.06267,-0.574093 0.02785,-0.443079 0.02088,-0.667001 0.04643,-0.47166 0.03713,-0.459754 0.0441,-0.831367 0.05571,-0.764664 0.01857,-0.335885 0.02321,-0.426401 0.01857,-0.331118 0.01858,-0.295382 0.02785,-0.659851 0.01857,-0.223924 0.05571,-0.41211 0.09285,-0.507393 0.0441,-0.335882 0.07427,-0.781341 0.03481,-0.309677 0.0046,-0.07385 0.02088,-0.181043 0.01161,-0.147692 0.02785,-0.419253 0.02785,-0.805165 0.0046,-0.219157 0.03018,-0.500248 0.02554,-0.445458 0.0441,-0.686055 0.03713,-0.190575 c 0.0074,-0.04278 0.0043,-0.03523 0,-0.01906 l 0.02785,-0.13578 0.01858,-0.10958 0.02321,-0.159605 0.02554,-0.204865 0.03018,-0.390667 0.01624,-0.497867 0.01161,-0.100053 0.0093,-0.04765 0.0093,-0.03812 0.0441,-0.200097 c 0.0094,-0.04948 0.01618,-0.09844 0.02088,-0.147692 l 0.01626,-0.100053 0.0325,-0.278711 0.04178,-0.373996 0.07196,-0.493101 0.02785,-0.116724 0.04641,-0.204862 0.02554,-0.142931 0.04642,-0.316824 0.08357,-0.712257 0.01392,-0.150074 0.01857,-0.169134 0.007,-0.06432 0.0093,-0.03812 c 0.01052,-0.05518 -0.0039,0.01198 0.0046,-0.0262 l 0.03018,-0.128632 0.0441,-0.219156 0.065,-0.48119 0.06731,-0.676528 0.01392,-0.121489 0.03017,-0.181043 0.05572,-0.402583 0.02088,-0.300148 0.0093,-0.235832 0.03945,-0.562183 0.03248,-0.273946 0.0325,-0.316824 0.01392,-0.197719 0.02785,-0.359704 0.06963,-0.647942 0.07196,-0.393049 0.04642,-0.278713 0.07427,-0.495484 0.05571,-0.295382 0.06731,-0.24298 c 0.01185,-0.04087 0.0061,-0.03132 0.0046,-0.02858 l 0.065,-0.142926 0.164799,-0.440695 0.132308,-0.471666 0.146229,-0.438311 0.03946,-0.07624 0.02554,-0.0405 0.007,0.0095 c 0.0013,0.0036 0.0023,0.0069 0.01391,0.03334 l 0.118379,0.35732 0.104444,0.316824 0.120701,0.27871 0.10909,0.197721 0.01624,0.03573 0.01393,0.04765 0.07427,0.297767 0.05107,0.19057 0.05804,0.216774 0.02321,0.07624 c 0.02363,0.07768 0.02487,0.118055 0.116053,0.312059 l 0.06731,0.145314 0.0441,0.240593 0.09053,0.397817 0.03945,0.152456 0.0882,0.273946 v 0.0023 c 0.03438,0.103467 0.03621,0.170527 0.136947,0.326352 l 0.08588,0.204864 0.143908,0.371614 0.1207,0.326356 0.125343,0.276329 0.139264,0.235825 0.06266,0.08815 0.07427,0.214391 0.194977,0.538364 0.1648,0.352559 0.181046,0.283472 0.143911,0.331117 0.285497,0.531215 0.181049,0.257274 c 0.01982,0.02724 -0.01246,-0.01484 0.03248,0.05241 l 0.120699,0.166748 0.03481,0.05004 c 0.01099,0.01573 -4.17e-4,-0.0042 0.0046,0.0047 l 0.132306,0.276327 0.102126,0.262036 0.09749,0.209625 0.09516,0.171515 0.07659,0.121489 c 0.05416,0.08228 0.0976,0.143094 0.17176,0.223922 l 0.04875,0.06671 0.129981,0.316823 0.204259,0.464516 0.07195,0.142931 0.09749,0.17866 0.109092,0.171511 0.03018,0.04526 0.04874,0.06908 0.04642,0.07624 0.222827,0.490718 0.192655,0.362088 c 0.160636,0.274555 0.264226,0.38611 0.266931,0.390666 l 0.06962,0.178662 0.09053,0.25489 0.09516,0.259652 0.162481,0.362082 0.04178,0.07861 0.106774,0.17151 -0.0023,0.0023 0.18337,0.44546 0.157836,0.373992 0.07892,0.178661 0.08124,0.181043 0.118378,0.352559 0.0882,0.312058 0.111417,0.331119 0.181045,0.388288 0.03713,0.07861 0.194973,0.55504 0.09285,0.235827 0.111412,0.266801 0.09053,0.188188 0.136945,0.412108 0.102127,0.304916 0.07659,0.231067 0.118374,0.281092 0.05107,0.100053 0.02321,0.05717 0.03945,0.08575 c 0.03634,0.07856 0.0019,0.04264 0.07195,0.293004 l 0.201937,0.600298 0.192653,0.414493 0.09284,0.312061 0.07427,0.31206 0.05571,0.207246 0.06963,0.204863 0.03481,0.09291 0.04179,0.104823 0.06731,0.250121 0.0441,0.212012 0.05571,0.271562 0.0534,0.192953 0.03714,0.126253 0.03248,0.09052 0.106773,0.238215 c 0.0245,0.04717 -0.0155,-0.028 0.01161,0.02858 l 0.02088,0.0405 0.157837,0.443076 0.148555,0.347796 0.05804,0.133396 0.09981,0.207246 0.01624,0.03334 0.03945,0.07861 0.08124,0.147692 0.01624,0.04526 0.06036,0.185804 0.02321,0.06908 0.04642,0.126255 0.0766,0.221537 0.155513,0.36923 0.08588,0.157224 0.06267,0.109579 0.04641,0.07385 c 0.102735,0.240846 0.118822,0.185362 0.155514,0.238216 0.01352,0.0195 0.02548,0.03877 0.03946,0.05717 l 0.03018,0.04526 0.03713,0.05479 0.134627,0.21439 0.05107,0.07861 0.06498,0.09766 0.07659,0.116726 c 0.03361,0.04816 -0.02129,-0.03194 0.01392,0.02382 l 0.01624,0.03098 0.174083,0.25727 0.162478,0.185807 c 0.103125,0.10374 0.21038,0.176048 0.264608,0.209626 l 0.06962,0.05004 0.222828,0.131015 0.246039,0.09528 c 0.22703,0.0688 0.395296,0.07643 0.545464,0.081 h 0.178728 c 0.01959,-2.28e-4 0.0227,0.02101 0.239074,-0.0071 l 0.213543,-0.05003 c 0.07552,-0.0255 0.201583,-0.06535 0.341209,-0.176279 l 0.113734,-0.0381 0.09284,-0.04049 0.065,-0.03336 c 0.120389,-0.05741 0.227,-0.134186 0.320314,-0.228682 l 0.0441,-0.04049 0.09284,-0.100054 c -0.01189,0.01367 -0.01777,0.02378 -0.0046,0.0095 0.02634,-0.02856 0.04105,-0.04608 0.04875,-0.0548 0.02222,-0.02478 0.042,-0.0492 0.06268,-0.07624 l 0.02554,-0.02858 0.08123,-0.114345 0.06036,-0.08575 c 0.01216,-0.01863 -0.009,0.01505 0.0046,-0.0047 l 0.06267,-0.09528 0.03713,-0.06195 0.0325,-0.0548 0.06962,-0.100041 c 0.03322,-0.05161 -0.0013,-0.0046 0.007,-0.01668 l 0.03945,-0.0548 c 0.158279,-0.105015 0.156704,-0.157169 0.174086,-0.197719 0.0167,-0.02383 0.03754,-0.05293 0.06731,-0.100041 l 0.04874,-0.07145 0.07196,-0.126253 0.03482,-0.06432 0.06266,-0.114342 0.08589,-0.159608 0.09053,-0.133398 0.06731,-0.081 0.03481,-0.04765 0.06266,-0.07861 0.01857,-0.02382 0.07427,-0.10719 0.04642,-0.081 0.07659,-0.138164 0.08124,-0.17866 c -0.0024,0.0059 -3.12e-4,0.0047 0.02088,-0.04287 l 0.02785,-0.06668 0.02322,-0.05003 0.03944,-0.081 c 0.0078,-0.01518 -0.0046,-0.0042 -0.007,-0.0023 l 0.06498,-0.06432 0.0534,-0.05955 0.102127,-0.12149 c 0.01564,-0.02009 0.0049,-0.0068 0.007,-0.0095 l 0.160156,-0.23345 0.01626,-0.03098 0.09284,-0.171511 0.08821,-0.178661 0.0882,-0.190575 c 0.03654,-0.0786 -0.0061,-0.01485 0.02322,-0.05715 l 0.176406,-0.214395 c 0.150441,-0.194277 0.262632,-0.385878 0.357452,-0.58362 0.0085,-0.01763 0.0089,-0.02077 0.02088,-0.04287 l 0.02785,-0.03574 0.02554,-0.03335 0.03713,-0.05003 c 0.0185,-0.0251 0.0096,-0.01214 0.0093,-0.01191 l 0.06035,-0.07624 0.136944,-0.181045 0.07196,-0.104811 0.02785,-0.04049 0.03248,-0.04765 0.04178,-0.0524 0.07892,-0.09053 0.07893,-0.09291 c 0.0258,-0.01785 0.04889,-0.03465 0.09053,-0.06432 l 0.04179,-0.02143 0.08356,-0.04287 0.14855,-0.07861 0.118378,-0.06908 c 0.04091,0.0288 0.07398,0.05903 0.132308,0.08815 l 0.09284,0.07385 h 0.0023 l 0.1648,0.114346 0.02321,0.03335 0.04179,0.06908 0.03248,0.05955 0.06731,0.11911 0.04178,0.08575 0.03481,0.06433 0.05571,0.09528 0.08357,0.161984 0.09981,0.164367 0.102126,0.14293 0.02554,0.03574 0.192656,0.240599 0.150871,0.183421 0.03481,0.07385 c 0.06724,0.14015 0.143241,0.319371 0.280857,0.543125 l 0.160157,0.231071 0.03018,0.04526 0.05804,0.08575 0.02321,0.0381 0.05571,0.081 0.07659,0.119112 0.08589,0.152455 0.06267,0.128633 0.208902,0.383529 0.132299,0.242976 0.116059,0.188188 0.146225,0.197718 0.06729,0.08814 0.169444,0.383523 0.111415,0.242982 0.194968,0.321586 0.123026,0.138164 c 0.04821,0.06667 0.102115,0.129263 0.162477,0.185808 0.05764,0.05395 0.113316,0.09769 0.16712,0.135782 l 0.03484,0.07145 0.15784,0.309674 0.102122,0.18581 0.178731,0.269181 0.102121,0.152456 0.129987,0.18581 0.236751,0.269179 0.129986,0.102432 c 0.02295,0.05955 0.09067,0.265342 0.264607,0.57886 0.136804,0.24663 0.28227,0.447015 0.41548,0.624116 l 0.148556,0.202482 0.08357,0.114344 0.104455,0.181043 0.09749,0.171514 0.111414,0.192949 0.24372,0.326357 0.0696,0.07145 c 0.09033,0.199837 0.13055,0.234014 0.143913,0.262035 l 0.123011,0.328734 0.167127,0.359698 0.178722,0.26442 0.04874,0.05717 0.06729,0.173893 0.188014,0.371614 0.164794,0.278712 0.0882,0.181042 0.178729,0.309679 0.150874,0.192949 0.065,0.06908 0.136946,0.281097 0.317993,0.621737 0.176404,0.357321 0.183373,0.409725 0.127661,0.326352 0.123017,0.285861 c 0.157204,0.324355 0.284284,0.459148 0.299424,0.48357 l 0.03254,0.08575 0.0627,0.226304 0.08357,0.262033 c 0.107523,0.316661 0.237978,0.529725 0.301741,0.643178 l 0.07428,0.128635 0.150875,0.457368 0.09515,0.264417 c 0.108653,0.272556 0.232674,0.445786 0.290145,0.531214 l 0.13462,0.192956 0.065,0.154838 0.0882,0.24536 0.167119,0.388289 0.234442,0.393057 0.10444,0.154834 0.171769,0.343027 c 0.0364,0.06966 0.07612,0.133859 0.120692,0.192953 l 0.123019,0.209629 0.164801,0.231067 0.290138,0.333501 0.07892,0.09529 0.0696,0.119105 0.257638,0.35256 c 0.177326,0.212277 0.315818,0.320555 0.380666,0.383523 l 0.09749,0.100053 0.143907,0.173895 c 0.228773,0.256473 0.401278,0.361 0.443336,0.397816 l 0.322635,0.338266 0.34585,0.328736 c 0.115173,0.107256 0.253238,0.260546 0.475824,0.433546 0.23094,0.179425 0.403667,0.248686 0.489753,0.295388 l 0.362093,0.221537 0.294788,0.166747 0.17641,0.164366 0.352812,0.307299 c 0.206136,0.153091 0.374677,0.22994 0.480471,0.283471 l 0.373698,0.192954 0.153192,0.09053 0.431726,0.23345 0.132304,0.081 0.222829,0.271562 c 0.123975,0.145483 0.266804,0.291585 0.429412,0.426408 l 0.30871,0.228683 0.06267,0.05237 0.08822,0.150072 c 0.14534,0.238846 0.293173,0.43735 0.42476,0.60507 l 0.27854,0.326349 c 0.111469,0.115361 0.204065,0.191878 0.25532,0.231062 l 0.227473,0.378764 0.129983,0.223922 0.123016,0.178663 0.17177,0.209623 0.143905,0.135788 0.220507,0.171509 c 0.02475,0.01664 -0.01739,-0.0107 0.02089,0.01664 l 0.07665,0.05244 0.120702,0.08575 0.183363,0.176278 0.174083,0.145302 0.164805,0.119112 c 0.0217,0.01538 -0.01363,-0.01062 0.0092,0.0074 l 0.225151,0.166748 0.420124,0.304913 0.359795,0.240592 0.271557,0.138164 0.16016,0.0572 c 0.03559,0.01166 -0.02681,-0.0066 0.02089,0.01188 l 0.03721,0.01426 0.05102,0.02146 0.201949,0.07624 c 0.257613,0.08488 0.445824,0.110977 0.550103,0.140548 l 0.280868,0.116727 0.264593,0.111958 0.232113,0.08099 0.06038,0.07624 0.0441,0.05481 c 0.02773,0.03536 -0.02311,-0.04048 0.01396,0.01426 l 0.181047,0.231069 0.146226,0.166748 0.05104,0.05481 0.03245,0.03811 c 0.07973,0.09468 0.07155,0.08166 0.07896,0.08575 l 0.12998,0.140549 0.134623,0.18104 0.299433,0.493105 0.276207,0.357318 0.25765,0.254883 0.07424,0.07384 0.15784,0.362086 0.176405,0.362088 0.194971,0.29062 0.0975,0.285851 0.21354,0.493105 0.1532,0.295382 0.0975,0.212015 0.10445,0.352557 0.0905,0.33588 0.0627,0.214393 0.10213,0.300149 0.058,0.18104 0.0813,0.390671 0.0859,0.369233 0.1323,0.416869 0.1323,0.288245 c 0.0257,0.06058 -0.009,-0.02401 0.0117,0.08103 l 0.0325,0.226295 0.0557,0.364468 0.0975,0.409725 0.10909,0.314444 0.0951,0.316828 0.0696,0.266794 0.0743,0.290627 c 0.0819,0.28904 0.1668,0.447729 0.17873,0.478813 l 0.0372,0.123859 0.0859,0.29301 0.0998,0.321585 c 0.0684,0.203625 0.14993,0.378183 0.21818,0.507403 l 0.10445,0.178665 0.058,0.109567 0.11606,0.25966 0.0626,0.16675 0.10212,0.25965 0.14855,0.281086 0.0742,0.123878 0.0836,0.131013 0.11604,0.147697 0.15087,0.14769 0.11607,0.109585 c 0.17546,0.138463 0.25662,0.179041 0.30173,0.190571 0.0497,0.04133 0.10375,0.07692 0.16016,0.109577 0.11059,0.06392 0.17631,0.297135 0.81936,0.131021 0.26234,-0.06778 0.6648,-0.358612 0.82632,-0.805166 0.20317,-0.561743 0.0588,-0.922032 -0.0117,-1.107699 -0.0827,-0.218336 -0.1538,-0.310843 -0.21586,-0.390663 -0.19725,-0.253742 -0.32658,-0.315541 -0.4735,-0.390672 l -0.0766,-0.05236 -0.0882,-0.231068 -0.21817,-0.481198 -0.16016,-0.295387 c -0.0357,-0.05926 -0.01,-0.01058 -0.0255,-0.04044 l -0.0278,-0.0667 -0.0673,-0.219157 -0.0951,-0.319211 -0.10677,-0.323969 -0.0905,-0.214387 -0.0558,-0.221537 -0.0836,-0.314444 -0.16479,-0.545515 -0.0533,-0.142922 -0.0163,-0.06673 -0.0372,-0.245362 -0.0627,-0.40495 c -0.0366,-0.186221 -0.0819,-0.411651 -0.19963,-0.688448 l -0.0928,-0.19057 -0.0255,-0.08814 -0.0533,-0.231067 -0.12069,-0.547889 -0.11837,-0.383532 -0.072,-0.212007 -0.0441,-0.154834 -0.0836,-0.300149 -0.17874,-0.595533 c -0.0804,-0.221123 -0.17351,-0.410036 -0.25532,-0.566956 l -0.11837,-0.2263 -0.0905,-0.2001 c -0.0435,-0.120553 -0.0697,-0.355796 -0.3087,-0.757512 -0.16143,-0.271374 -0.14366,-0.190667 -0.18105,-0.257276 l -0.0464,-0.09767 c -0.0554,-0.128032 -0.14187,-0.386184 -0.33657,-0.707491 -0.0833,-0.137412 -0.18572,-0.288836 -0.32728,-0.440691 l -0.20193,-0.195339 -0.0975,-0.09051 -0.0418,-0.05237 c -0.0557,-0.08403 -0.14308,-0.267148 -0.31801,-0.524067 -0.10012,-0.147033 -0.2494,-0.365622 -0.466541,-0.576486 l -0.03717,-0.04285 -0.05797,-0.0667 -0.06722,-0.07384 -0.02793,-0.03098 -0.07896,-0.08815 c -0.02899,-0.03446 -0.02629,-0.02926 -0.01859,-0.01664 l -0.120698,-0.161993 -0.05104,-0.06195 -0.08358,-0.100056 c -0.03351,-0.04822 -0.06904,-0.09455 -0.109084,-0.138164 L 99.103335,78.13303 c -0.160536,-0.136641 -0.347023,-0.253516 -0.550112,-0.338264 l -0.324952,-0.119104 -0.155519,-0.06671 c -0.144367,-0.06508 -0.329112,-0.151905 -0.566347,-0.219154 l -0.468876,-0.114341 -0.04189,-0.01671 -0.08821,-0.0381 -0.05104,-0.02146 -0.148566,-0.0572 -0.211197,-0.145311 -0.362118,-0.259652 -0.190338,-0.142933 -0.09285,-0.06908 -0.106761,-0.07624 -0.239075,-0.226307 -0.366735,-0.27156 -0.02779,-0.01902 -0.06957,-0.123872 -0.290133,-0.483575 -0.05102,-0.07861 -0.229786,-0.29539 -0.174083,-0.164367 -0.120694,-0.09529 -0.106779,-0.128635 -0.241397,-0.34303 c -0.05029,-0.08255 -0.135281,-0.255519 -0.324956,-0.48119 -0.166435,-0.19797 -0.343593,-0.34695 -0.503682,-0.462132 L 92.81567,73.14483 92.688002,73.016196 c -0.07531,-0.08825 -0.239847,-0.353543 -0.582598,-0.619355 -0.162034,-0.125616 -0.300462,-0.200115 -0.410845,-0.262036 l -0.403651,-0.21913 -0.199617,-0.116726 -0.438692,-0.226301 -0.157829,-0.08338 -0.104466,-0.09529 C 90.257758,71.26372 90.069497,71.065717 89.777543,70.891349 l -0.278538,-0.157222 -0.457253,-0.276326 -0.18337,-0.09528 -0.313352,-0.295387 -0.26461,-0.250125 c -0.107728,-0.10999 -0.237762,-0.27271 -0.459576,-0.466897 l -0.225152,-0.183428 -0.16712,-0.195331 -0.199614,-0.207246 -0.201937,-0.190572 -0.04412,-0.05717 -0.134629,-0.216778 -0.313351,-0.390667 -0.143906,-0.161984 -0.03944,-0.0524 -0.104454,-0.178659 c -0.01567,-0.03002 -0.0315,-0.06006 -0.04873,-0.08813 -0.04427,-0.09468 -0.10976,-0.228747 -0.213547,-0.400198 l -0.183365,-0.281094 -0.03484,-0.05004 -0.04873,-0.109579 -0.116058,-0.319207 C 85.538531,66.109357 85.458171,65.9067 85.311755,65.669773 L 85.102852,65.36486 85.070402,65.2672 c -0.05103,-0.148944 -0.111356,-0.425194 -0.290146,-0.793249 l -0.153191,-0.281096 -0.08123,-0.147691 -0.04181,-0.128638 -0.116059,-0.397814 c -0.07421,-0.209085 -0.166228,-0.424155 -0.301875,-0.643175 l -0.157844,-0.226307 -0.04412,-0.1072 -0.13927,-0.359704 -0.25068,-0.555035 -0.194966,-0.395437 -0.304073,-0.593153 c -0.07924,-0.162202 -0.160263,-0.383642 -0.373697,-0.683671 -0.02274,-0.03194 -0.07779,-0.119153 -0.18569,-0.228684 l -0.141589,-0.278713 -0.160159,-0.266802 -0.04642,-0.08575 -0.03714,-0.09766 c -0.01754,-0.0468 -0.05013,-0.161709 -0.155517,-0.354939 l -0.19961,-0.300154 -0.05103,-0.05955 c -0.0364,-0.100509 -0.0891,-0.266405 -0.194967,-0.48834 -0.1151,-0.241346 -0.09299,-0.144739 -0.129986,-0.233449 l -0.139264,-0.273945 -0.05341,-0.08576 -0.171762,-0.228684 -0.129986,-0.142929 -0.03944,-0.0667 -0.09053,-0.164367 -0.22979,-0.383523 -0.125344,-0.173894 -0.181046,-0.24298 -0.206579,-0.307293 c -0.0044,-0.0085 -0.0764,-0.234644 -0.271574,-0.588393 -0.157277,-0.285176 -0.365504,-0.537442 -0.612773,-0.747987 l -0.129986,-0.190571 -0.06729,-0.09766 -0.04181,-0.07861 -0.113733,-0.221533 c -0.07861,-0.160061 -0.18396,-0.464316 -0.529221,-0.798016 -0.03128,-0.03017 -0.09925,-0.102648 -0.211221,-0.183427 -0.06693,-0.154866 -0.145584,-0.358768 -0.276217,-0.600295 l -0.141581,-0.23345 -0.150874,-0.207246 -0.04874,-0.06195 -0.02318,-0.0381 -0.113739,-0.204862 -0.141582,-0.257275 -0.08822,-0.181039 -0.190333,-0.333499 -0.155516,-0.240599 c -0.01835,-0.02657 -0.0086,-0.01338 -0.0092,-0.01428 l -0.04175,-0.06194 -0.05571,-0.08575 -0.08588,-0.126254 -0.05342,-0.06908 -0.139271,-0.285857 c -0.04606,-0.09596 -0.111178,-0.240934 -0.232108,-0.421635 -0.149166,-0.222847 -0.282391,-0.361878 -0.320318,-0.407348 l -0.113733,-0.142927 -0.03254,-0.04287 c -0.02436,-0.04834 -0.0052,-0.04209 -0.125337,-0.235832 l -0.07195,-0.13578 -0.04875,-0.08576 c -0.03902,-0.07332 0.02038,0.04516 -0.01161,-0.02143 l -0.10445,-0.190573 c -0.01193,-0.01895 -0.0113,-0.01494 -0.007,-0.0071 l -0.06963,-0.116722 -0.116055,-0.166751 -0.04641,-0.05955 -0.0441,-0.05241 c -0.03044,-0.04365 -0.09306,-0.129431 -0.183367,-0.216774 l -0.106773,-0.09766 -0.218186,-0.152458 -0.0534,-0.03335 -0.02554,-0.02144 -0.06035,-0.04765 -0.04642,-0.03574 C 73.95437,46.677973 74.02032,46.730406 74.065819,46.77237 c -0.0275,-0.02127 -0.06557,-0.04905 -0.113732,-0.08336 l -0.03018,-0.01668 -0.0023,-0.0023 c -0.05081,-0.06441 -0.104523,-0.121726 -0.164776,-0.166745 -0.325533,-0.24325 -0.526289,-0.226383 -0.645273,-0.22154 l -0.03481,-0.0095 c -0.115245,-0.01496 -0.345255,-0.103115 -0.652237,0.09528 l -0.04178,0.0119 -0.213544,0.08815 -0.155515,0.08813 c -0.02653,0.01691 0.02126,-0.0129 -0.01161,0.0071 l -0.08356,0.05241 -0.08589,0.05717 -0.109092,0.06432 -0.07427,0.03574 -0.06498,0.03335 -0.0534,0.02858 -0.185688,0.109579 -0.0534,0.03098 c -0.120469,0.05855 -0.118186,0.08041 -0.141593,0.09766 l -0.07195,0.05955 -0.06498,0.05003 c -0.150284,0.124159 -0.125302,0.118491 -0.174086,0.173896 l -0.07195,0.07385 -0.09516,0.111958 -0.123017,0.142924 -0.06963,0.08815 -0.07892,0.102431 -0.111413,0.166751 -0.06035,0.08337 -0.07659,0.09291 -0.06036,0.08337 -0.09749,0.126255 c -0.01109,0.01604 0.02458,-0.04648 -0.05804,0.081 l -0.04409,0.06668 -0.08124,0.138164 v 0.0023 l -0.104443,0.200102 -0.05107,0.08575 -0.257645,0.323973 c -0.129274,0.18617 -0.203775,0.345661 -0.264608,0.476425 l -0.08124,0.183427 -0.05107,0.102431 -0.0325,0.03098 c -0.0245,0.02325 -0.04822,0.04967 -0.08124,0.08575 -0.01456,0.01649 -0.02811,0.0329 -0.04178,0.05003 -0.152562,0.183253 -0.248295,0.350992 -0.329598,0.509778 l -0.104445,0.219157 -0.02785,0.06433 -0.03944,0.08814 -0.01392,0.03335 c -0.07535,0.08671 -0.04377,0.05273 -0.04875,0.06194 l -0.08356,0.102433 -0.111414,0.159602 -0.03713,0.0548 -0.065,0.104812 c 0.0012,-0.0018 -0.01175,0.01577 -0.02322,0.03574 l -0.065,0.102431 -0.04874,0.09291 -0.02088,0.04048 c -0.08513,0.130674 -0.08861,0.154253 -0.09981,0.181043 l -0.08356,0.09529 -0.03713,0.04526 -0.08588,0.114338 -0.05804,0.081 -0.05571,0.08815 -0.02088,0.03098 -0.03018,0.04287 -0.08124,0.133399 c 0.009,-0.017 0.01432,-0.02749 -0.007,0.0071 -0.03996,0.0084 -0.07761,0.02521 -0.116057,0.03812 l -0.007,-0.01191 -0.04179,-0.06669 -0.06267,-0.09291 -0.04179,-0.06432 c -0.0513,-0.07845 -0.01772,-0.01747 -0.03713,-0.05241 l -0.113628,-0.186163 c -0.01294,-0.01873 -0.0092,-0.01467 -0.0046,-0.0071 l -0.02785,-0.04287 c -0.01946,-0.03381 -0.0493,-0.08325 -0.09284,-0.14293 -0.0244,-0.03844 -0.05572,-0.08423 -0.104455,-0.150073 l -0.0441,-0.081 -0.03017,-0.07385 -0.07892,-0.223922 -0.01857,-0.05004 -0.01857,-0.0548 -0.03713,-0.116721 -0.07893,-0.23107 c -0.02391,-0.06314 0.0075,0.02644 -0.0093,-0.02144 l -0.123017,-0.283473 -0.08357,-0.142929 -0.04642,-0.09051 -0.03248,-0.06433 c 0.0054,0.0088 0.0054,0.01105 -0.0093,-0.02143 l -0.06036,-0.142931 -0.08588,-0.197713 -0.150872,-0.424025 -0.04642,-0.116722 -0.07427,-0.15484 -0.02322,-0.05717 -0.03481,-0.171509 -0.06731,-0.323974 -0.146229,-0.521689 -0.03018,-0.09051 -0.05804,-0.142929 -0.02785,-0.07624 -0.01626,-0.0548 -0.07427,-0.314443 c -0.06222,-0.251142 -0.132317,-0.518611 -0.262287,-0.812309 l -0.155514,-0.323972 -0.09054,-0.28109 c -0.03321,-0.118963 -0.06681,-0.370961 -0.241395,-0.747993 -0.01832,-0.03954 0.0051,0.01156 -0.0093,-0.02143 l -0.104455,-0.221538 c -0.0073,-0.01422 -0.0074,-0.01282 -0.01857,-0.03574 l -0.05572,-0.171511 -0.07659,-0.233449 -0.167121,-0.505017 -0.111413,-0.273944 -0.03248,-0.07145 -0.05107,-0.100053 -0.065,-0.154841 -0.05804,-0.14769 -0.239074,-0.669384 -0.153197,-0.323966 c -0.03044,-0.05759 -0.02824,-0.05203 -0.03018,-0.05717 l -0.04178,-0.121489 -0.08821,-0.307296 -0.215866,-0.638411 -0.125336,-0.281094 -0.06266,-0.138164 -0.120701,-0.29062 c -0.08332,-0.209317 -0.166074,-0.462795 -0.334238,-0.769431 l -0.116057,-0.192954 -0.03018,-0.06432 -0.06731,-0.192954 -0.109092,-0.297764 c -0.07685,-0.205351 -0.159188,-0.435279 -0.32728,-0.70273 l -0.222828,-0.314442 -0.065,-0.123873 c -0.07744,-0.166758 -0.163526,-0.406918 -0.334243,-0.707496 -0.02529,-0.04457 -0.05245,-0.08634 -0.08123,-0.126254 l -0.106774,-0.166749 -0.03018,-0.04765 -0.0534,-0.08338 -0.05107,-0.102431 -0.09286,-0.207247 c -0.0771,-0.203054 -0.164437,-0.457184 -0.338824,-0.755119 l -0.236756,-0.34541 c -0.0071,-0.0093 -0.02625,-0.04629 -0.0882,-0.116722 l -0.06945,-0.185783 c -0.08759,-0.223121 -0.188645,-0.433693 -0.297101,-0.628883 l -0.150878,-0.238215 -0.04177,-0.05955 -0.08588,-0.116727 -0.09517,-0.140547 -0.08357,-0.114339 -0.09516,-0.181043 c -0.07343,-0.162204 -0.139958,-0.385634 -0.355131,-0.714642 -0.08146,-0.124523 -0.03715,-0.03849 -0.06963,-0.09766 l -0.01858,-0.04764 -0.146229,-0.402578 c -0.07111,-0.202527 -0.151939,-0.482877 -0.359773,-0.809926 l -0.08589,-0.12387 -0.09285,-0.257276 -0.181045,-0.464514 -0.116058,-0.276329 c -0.01448,-0.03431 0.0154,-0.06052 -0.08589,-0.22154 l -0.01624,-0.05955 -0.0441,-0.188192 c -0.0333,-0.181658 -0.04043,-0.421869 -0.2089,-0.826601 l -0.116058,-0.262036 -0.03946,-0.152457 -0.03481,-0.126249 -0.09749,-0.383524 -0.06963,-0.226304 -0.06267,-0.169133 -0.02554,-0.05955 -0.09284,-0.197717 -0.05804,-0.107191 c -0.03751,-0.06607 -0.0134,-0.0152 -0.03018,-0.04765 l -0.05107,-0.159601 -0.169443,-0.51216 -0.065,-0.1596 -0.09516,-0.207246 -0.05571,-0.102433 -0.09053,-0.145308 -0.07892,-0.10958 -0.04875,-0.06433 c -0.0011,-0.008 -0.0011,-0.01362 -0.05572,-0.126249 l -0.03018,-0.06194 -0.04178,-0.08337 -0.01857,-0.03811 -0.02785,-0.06195 -0.116058,-0.262036 -0.102126,-0.176277 -0.09284,-0.147691 c -0.01142,-0.01918 -0.02316,-0.03859 -0.03714,-0.05955 0,-0.0015 2.35e-4,-0.0028 -0.02321,-0.03335 -0.03843,-0.0543 -0.08664,-0.111026 -0.141588,-0.166749 -0.03533,-0.03585 -0.157843,-0.297661 -0.694016,-0.378763 z" />
        <g
           aria-label="CARDIA PPG"
           id="text174"
           style="font-size:39.6621px;font-family:Montserrat;-inkscape-font-specification:'Montserrat, @wght=700';font-variation-settings:'wght' 700;stroke-width:1.59356;stroke-linejoin:round">
          <style>
            @media (prefers-color-scheme: light) { path { fill: 323232; } }
            @media (prefers-color-scheme: dark) { path { fill: white; } }
          </style>
          <path
             d="m -36.398452,178.86256 q -3.212631,0 -5.988978,-1.03122 -2.736685,-1.07087 -4.759452,-3.01432 -2.022767,-1.94344 -3.172968,-4.56114 -1.110539,-2.6177 -1.110539,-5.751 0,-3.13331 1.110539,-5.75101 1.150201,-2.6177 3.172968,-4.56114 2.062429,-1.94344 4.799114,-2.97466 2.736685,-1.07087 5.988978,-1.07087 3.609251,0 6.504584,1.26918 2.934996,1.22953 4.918101,3.64892 l -4.124859,3.80756 q -1.427835,-1.62615 -3.172968,-2.41939 -1.745132,-0.8329 -3.807562,-0.8329 -1.943443,0 -3.569589,0.63459 -1.626146,0.63459 -2.816009,1.82446 -1.189863,1.18986 -1.864119,2.81601 -0.634593,1.62614 -0.634593,3.60925 0,1.9831 0.634593,3.60925 0.674256,1.62614 1.864119,2.81601 1.189863,1.18986 2.816009,1.82445 1.626146,0.6346 3.569589,0.6346 2.06243,0 3.807562,-0.79324 1.745133,-0.83291 3.172968,-2.49872 l 4.124859,3.80756 q -1.983105,2.41939 -4.918101,3.68858 -2.895333,1.26919 -6.544246,1.26919 z"
             id="path871" />
          <path
             d="m -24.802069,178.38661 12.374576,-27.76347 h 6.3459358 L 6.3326806,178.38661 H -0.40987666 L -10.563375,153.87543 h 2.5383748 L -18.21816,178.38661 Z m 6.187288,-5.94931 1.70547,-4.87844 h 14.2783566 l 1.74513252,4.87844 z"
             id="path873" />
          <path
             d="M 9.228043,178.38661 V 150.62314 H 21.24566 q 3.728237,0 6.42526,1.22953 2.697023,1.18986 4.164521,3.4506 1.467498,2.26074 1.467498,5.39404 0,3.09365 -1.467498,5.35439 -1.467498,2.22108 -4.164521,3.41094 -2.697023,1.18986 -6.42526,1.18986 h -8.448028 l 2.855671,-2.81601 v 10.55012 z m 17.649635,0 -6.940868,-10.07417 h 6.861544 l 7.020192,10.07417 z m -11.224375,-9.8362 -2.855671,-3.01432 h 8.091069 q 2.974658,0 4.442155,-1.26919 1.467498,-1.30885 1.467498,-3.56959 0,-2.3004 -1.467498,-3.56958 -1.467497,-1.26919 -4.442155,-1.26919 h -8.091069 l 2.855671,-3.05398 z"
             id="path875" />
          <path
             d="m 38.379715,178.38661 v -27.76347 h 12.612549 q 4.521479,0 7.972082,1.74513 3.450603,1.70547 5.394046,4.79912 1.943443,3.09364 1.943443,7.33749 0,4.20418 -1.943443,7.33749 -1.943443,3.09364 -5.394046,4.83877 -3.450603,1.70547 -7.972082,1.70547 z m 6.425261,-5.27506 h 5.869991 q 2.776347,0 4.799114,-1.03121 2.06243,-1.07088 3.172968,-3.01432 1.150201,-1.94344 1.150201,-4.56114 0,-2.65736 -1.150201,-4.56115 -1.110538,-1.94344 -3.172968,-2.97465 -2.022767,-1.07088 -4.799114,-1.07088 h -5.869991 z"
             id="path877" />
          <path
             d="m 71.140618,178.38661 v -27.76347 h 6.42526 v 27.76347 z"
             id="path879" />
          <path
             d="m 80.500837,178.38661 12.374576,-27.76347 h 6.345936 l 12.414241,27.76347 h -6.74256 L 94.739531,153.87543 h 2.538375 l -10.19316,24.51118 z m 6.187288,-5.94931 1.70547,-4.87844 h 14.278355 l 1.74513,4.87844 z"
             id="path881" />
          <path
             d="m 125.75536,178.38661 v -27.76347 h 12.01761 q 3.72824,0 6.42526,1.22953 2.69703,1.18986 4.16452,3.4506 1.4675,2.26074 1.4675,5.39404 0,3.09365 -1.4675,5.35439 -1.46749,2.26074 -4.16452,3.49026 -2.69702,1.18987 -6.42526,1.18987 h -8.44802 l 2.85567,-2.89534 v 10.55012 z m 6.42526,-9.8362 -2.85567,-3.05398 h 8.09106 q 2.97466,0 4.44216,-1.26919 1.4675,-1.26919 1.4675,-3.52993 0,-2.3004 -1.4675,-3.56958 -1.4675,-1.26919 -4.44216,-1.26919 h -8.09106 l 2.85567,-3.05398 z"
             id="path883" />
          <path
             d="m 154.3914,178.38661 v -27.76347 h 12.01762 q 3.72824,0 6.42526,1.22953 2.69702,1.18986 4.16452,3.4506 1.4675,2.26074 1.4675,5.39404 0,3.09365 -1.4675,5.35439 -1.4675,2.26074 -4.16452,3.49026 -2.69702,1.18987 -6.42526,1.18987 h -8.44803 l 2.85567,-2.89534 v 10.55012 z m 6.42526,-9.8362 -2.85567,-3.05398 h 8.09107 q 2.97466,0 4.44216,-1.26919 1.46749,-1.26919 1.46749,-3.52993 0,-2.3004 -1.46749,-3.56958 -1.4675,-1.26919 -4.44216,-1.26919 h -8.09107 l 2.85567,-3.05398 z"
             id="path885" />
          <path
             d="m 196.82986,178.86256 q -3.29195,0 -6.0683,-1.03122 -2.73668,-1.07087 -4.79911,-3.01432 -2.02277,-1.94344 -3.17297,-4.56114 -1.11054,-2.6177 -1.11054,-5.751 0,-3.13331 1.11054,-5.75101 1.1502,-2.6177 3.21263,-4.56114 2.06243,-1.94344 4.83878,-2.97466 2.77634,-1.07087 6.10796,-1.07087 3.68857,0 6.62357,1.22952 2.97466,1.22953 4.99743,3.56959 l -4.12486,3.80756 q -1.50716,-1.58648 -3.29196,-2.34006 -1.78479,-0.79324 -3.88688,-0.79324 -2.02277,0 -3.68858,0.63459 -1.66581,0.63459 -2.89533,1.82446 -1.18987,1.18986 -1.86412,2.81601 -0.6346,1.62614 -0.6346,3.60925 0,1.94344 0.6346,3.56959 0.67425,1.62614 1.86412,2.85567 1.22952,1.18986 2.85567,1.82445 1.66581,0.6346 3.64891,0.6346 1.90378,0 3.68858,-0.59493 1.82445,-0.6346 3.52992,-2.1021 l 3.64892,4.64047 q -2.26074,1.70547 -5.27506,2.6177 -2.97466,0.91223 -5.94932,0.91223 z m 5.35439,-4.36283 v -10.43114 h 5.86999 v 11.26404 z"
             id="path887" />
        </g>
      </g>
    </g>
  </g>
</svg>
